<svg xmlns="http://www.w3.org/2000/svg" xmlns:xlink="http://www.w3.org/1999/xlink" width="500" zoomAndPan="magnify" viewBox="0 0 375 374.999991" height="500" preserveAspectRatio="xMidYMid meet" version="1.0"><defs><g/><clipPath id="cde3f004d7"><path d="M 327 186 L 328.078125 186 L 328.078125 189 L 327 189 Z M 327 186 " clip-rule="nonzero"/></clipPath><clipPath id="3f2171660f"><path d="M 46.828125 46 L 326 46 L 326 329 L 46.828125 329 Z M 46.828125 46 " clip-rule="nonzero"/></clipPath></defs><g clip-path="url(#cde3f004d7)"><path fill="#373435" d="M 327.410156 187.226562 C 327.410156 188.535156 328.042969 188.0625 328.171875 188.300781 C 327.96875 186.101562 327.238281 187.324219 327.410156 187.226562 Z M 327.410156 187.226562 " fill-opacity="1" fill-rule="nonzero"/></g><path fill="#373435" d="M 324.105469 165.96875 L 324.449219 166.300781 L 323.226562 163.308594 Z M 324.105469 165.96875 " fill-opacity="1" fill-rule="nonzero"/><path fill="#373435" d="M 319.546875 146.46875 C 318.957031 148.613281 321.8125 153.355469 322.121094 156.96875 L 322.003906 157.601562 L 323.269531 158.972656 C 322.691406 156.828125 322.015625 154.46875 321.253906 152.257812 C 320.558594 150.367188 319.988281 148.4375 319.546875 146.46875 Z M 319.546875 146.46875 " fill-opacity="1" fill-rule="nonzero"/><path fill="#373435" d="M 318.25 135.539062 C 318.078125 136.332031 317.027344 133.5 319.042969 137.941406 C 319.042969 137.695312 319.042969 137.617188 318.980469 137.46875 C 318.820312 137.070312 318.59375 136.503906 318.25 135.539062 Z M 318.25 135.539062 " fill-opacity="1" fill-rule="nonzero"/><path fill="#373435" d="M 318.992188 137.480469 C 319.804688 139.464844 318.828125 136.042969 318.992188 137.480469 Z M 318.992188 137.480469 " fill-opacity="1" fill-rule="nonzero"/><path fill="#373435" d="M 314.871094 128.457031 L 316.394531 130.871094 C 316.394531 130.226562 315.40625 127.902344 315.964844 128.726562 C 314.59375 126.089844 314.601562 126.785156 314.871094 128.457031 Z M 314.871094 128.457031 " fill-opacity="1" fill-rule="nonzero"/><path fill="#373435" d="M 313.003906 126.410156 C 313.285156 126.816406 313.550781 127.226562 313.789062 127.644531 C 313.800781 127.363281 313.671875 126.988281 313.003906 126.410156 Z M 313.003906 126.410156 " fill-opacity="1" fill-rule="nonzero"/><path fill="#373435" d="M 315.386719 130.3125 L 313.800781 127.644531 C 313.800781 128.09375 313.476562 128.285156 314.496094 128.878906 C 314.078125 128.792969 314.625 129.210938 315.386719 130.3125 Z M 315.386719 130.3125 " fill-opacity="1" fill-rule="nonzero"/><path fill="#373435" d="M 315.945312 131.976562 C 316.382812 133.511719 316.964844 135.453125 315.527344 133.050781 C 316.597656 135.484375 317.242188 136.472656 317.359375 136.214844 C 317.378906 135.765625 317.296875 135.335938 317.125 134.925781 C 316.816406 133.910156 316.421875 132.925781 315.945312 131.976562 Z M 315.945312 131.976562 " fill-opacity="1" fill-rule="nonzero"/><path fill="#373435" d="M 318.089844 145.898438 C 318.207031 146.585938 318.324219 147.273438 318.390625 147.96875 L 319.246094 149.578125 C 318.980469 148.851562 318.78125 148.109375 318.65625 147.347656 C 318.464844 146.46875 318.238281 145.78125 318.089844 145.898438 Z M 318.089844 145.898438 " fill-opacity="1" fill-rule="nonzero"/><path fill="#373435" d="M 307.007812 112.722656 C 306.710938 112.722656 307.007812 113.871094 306.816406 114.203125 C 307.277344 114.730469 307.695312 115.277344 308.125 115.84375 C 307.769531 114.816406 306.785156 113.035156 307.007812 112.722656 Z M 307.007812 112.722656 " fill-opacity="1" fill-rule="nonzero"/><path fill="#373435" d="M 306.816406 114.203125 L 304.789062 111.8125 C 306.289062 114.171875 306.6875 114.492188 306.816406 114.203125 Z M 306.816406 114.203125 " fill-opacity="1" fill-rule="nonzero"/><path fill="#373435" d="M 311.652344 126.527344 C 312.726562 127.878906 313.605469 129.328125 314.59375 130.734375 C 313.519531 129.015625 312.449219 127.300781 311.203125 125.667969 Z M 311.652344 126.527344 " fill-opacity="1" fill-rule="nonzero"/><path fill="#373435" d="M 300.292969 102.835938 C 300.800781 103.1875 301.292969 103.574219 301.785156 103.90625 L 300.519531 102.835938 L 299.199219 101.847656 Z M 300.292969 102.835938 " fill-opacity="1" fill-rule="nonzero"/><path fill="#373435" d="M 295.273438 96.710938 C 296.496094 97.40625 294.695312 94.832031 295.832031 95.703125 C 294.503906 94.316406 293.050781 93.078125 291.46875 91.988281 C 292.972656 93.371094 294.242188 94.945312 295.273438 96.710938 Z M 295.273438 96.710938 " fill-opacity="1" fill-rule="nonzero"/><path fill="#373435" d="M 289.128906 90.339844 C 289.816406 90.894531 290.585938 91.410156 291.433594 91.988281 C 290.710938 91.375 289.941406 90.824219 289.128906 90.339844 Z M 289.128906 90.339844 " fill-opacity="1" fill-rule="nonzero"/><path fill="#373435" d="M 302 107.371094 C 301.953125 106.488281 301.671875 105.6875 301.152344 104.96875 L 301.304688 106.363281 Z M 302 107.371094 " fill-opacity="1" fill-rule="nonzero"/><path fill="#373435" d="M 301.25 106.417969 L 299.746094 104.269531 Z M 301.25 106.417969 " fill-opacity="1" fill-rule="nonzero"/><path fill="#373435" d="M 302.117188 107.617188 L 301.945312 107.359375 C 302 107.5 302 107.574219 302.117188 107.617188 Z M 302.117188 107.617188 " fill-opacity="1" fill-rule="nonzero"/><path fill="#373435" d="M 308.4375 119.117188 C 307.191406 117.734375 304.972656 114.695312 306.289062 118.140625 C 307.289062 119.019531 306.539062 117.046875 308.4375 119.117188 Z M 308.4375 119.117188 " fill-opacity="1" fill-rule="nonzero"/><path fill="#373435" d="M 302.289062 109.34375 C 302.878906 110.265625 303.363281 111.234375 303.953125 112.175781 C 304.070312 112.027344 303.953125 111.382812 304.617188 112.039062 C 303.835938 111.125 303.074219 110.214844 302.289062 109.34375 Z M 302.289062 109.34375 " fill-opacity="1" fill-rule="nonzero"/><path fill="#373435" d="M 301.183594 108.15625 L 302.289062 109.34375 L 301.636719 108.316406 Z M 301.183594 108.15625 " fill-opacity="1" fill-rule="nonzero"/><path fill="#373435" d="M 292.519531 94.984375 C 291.921875 94.519531 291.359375 94.015625 290.835938 93.46875 L 289.054688 91.722656 C 290.277344 93.148438 291.5 94.671875 292.699219 96.078125 C 293.035156 96.054688 293.859375 96.464844 292.519531 94.984375 Z M 292.519531 94.984375 " fill-opacity="1" fill-rule="nonzero"/><path fill="#373435" d="M 296.863281 100.453125 L 296.636719 100.226562 C 296.710938 100.410156 296.796875 100.550781 296.863281 100.453125 Z M 296.863281 100.453125 " fill-opacity="1" fill-rule="nonzero"/><path fill="#373435" d="M 276.492188 79.816406 L 276.621094 80.09375 L 276.75 80.09375 Z M 276.492188 79.816406 " fill-opacity="1" fill-rule="nonzero"/><path fill="#373435" d="M 292.808594 96.367188 C 293.382812 97.21875 294.101562 97.933594 294.953125 98.511719 C 294.214844 97.761719 293.441406 96.933594 292.648438 96.035156 C 292.550781 96.054688 292.484375 96.054688 292.808594 96.367188 Z M 292.808594 96.367188 " fill-opacity="1" fill-rule="nonzero"/><path fill="#373435" d="M 285.546875 87.089844 L 287.015625 89.09375 C 286.695312 88.40625 285.910156 87.140625 285.546875 87.089844 Z M 285.546875 87.089844 " fill-opacity="1" fill-rule="nonzero"/><path fill="#373435" d="M 296.488281 99.734375 L 296.636719 99.882812 C 296.476562 99.421875 296.453125 99.507812 296.488281 99.734375 Z M 296.488281 99.734375 " fill-opacity="1" fill-rule="nonzero"/><path fill="#373435" d="M 296.488281 99.734375 C 296.019531 99.296875 295.519531 98.890625 294.996094 98.523438 C 295.574219 99.164062 296.070312 99.746094 296.625 100.226562 C 296.5625 100.066406 296.515625 99.902344 296.488281 99.734375 Z M 296.488281 99.734375 " fill-opacity="1" fill-rule="nonzero"/><path fill="#373435" d="M 269.695312 80.042969 C 269.984375 79.859375 270.925781 80.214844 272.0625 80.933594 C 272.691406 81.324219 273.28125 81.761719 273.832031 82.25 C 274.421875 82.796875 274.957031 83.390625 275.441406 84.03125 C 278.082031 85.683594 277.964844 82.808594 276.621094 80.09375 C 276.355469 80.257812 276.238281 80.394531 273.40625 78.699219 C 274.132812 79.613281 278.347656 83.914062 275.9375 82.582031 C 274.9375 81.910156 274.027344 81.140625 273.199219 80.265625 C 272.835938 79.699219 272.4375 79.160156 272 78.648438 C 272.4375 79.503906 271.207031 78.894531 269.855469 78.273438 C 268.503906 77.648438 267.023438 77.082031 267.054688 77.800781 C 268.128906 78.378906 269.199219 79.042969 270.273438 79.6875 C 270.21875 79.878906 268.996094 79.28125 269.695312 80.042969 Z M 269.695312 80.042969 " fill-opacity="1" fill-rule="nonzero"/><path fill="#373435" d="M 281.246094 84.257812 L 282.316406 85.125 C 281.289062 83.933594 280.328125 82.6875 279.445312 81.382812 C 277.546875 80.148438 277.050781 80.03125 276.792969 80.09375 C 278.425781 81.566406 280.109375 82.992188 281.683594 84.503906 Z M 281.246094 84.257812 " fill-opacity="1" fill-rule="nonzero"/><path fill="#373435" d="M 286.585938 89.253906 C 285.394531 88.953125 282.84375 87.011719 283.746094 88.878906 C 286.542969 91.5625 286.050781 90.414062 287.894531 91.871094 C 283.421875 87.429688 289.429688 92.945312 286.554688 89.339844 C 287.5 90.15625 288.292969 90.949219 289.042969 91.691406 C 288.3125 90.808594 287.628906 89.941406 287.003906 89.09375 L 287.082031 89.234375 C 287.210938 89.492188 287.230469 89.597656 287.082031 89.339844 L 286.984375 89.253906 C 286.855469 89.289062 286.726562 89.289062 286.597656 89.253906 C 285.429688 87.828125 286.523438 88.921875 286.984375 89.253906 C 286.984375 89.253906 287.082031 89.253906 287.113281 89.253906 C 285.578125 87.796875 283.894531 86.488281 282.296875 85.105469 C 283.164062 86.089844 284.429688 87.183594 286.585938 89.253906 Z M 286.585938 89.253906 " fill-opacity="1" fill-rule="nonzero"/><path fill="#373435" d="M 303.265625 116.058594 C 303.265625 115.867188 303.265625 115.84375 303.265625 115.8125 C 303.007812 115.511719 302.867188 115.414062 303.265625 116.058594 Z M 303.265625 116.058594 " fill-opacity="1" fill-rule="nonzero"/><path fill="#373435" d="M 302.234375 113.6875 C 302.863281 114.171875 303.359375 114.761719 303.726562 115.457031 C 304.242188 116.636719 303.4375 115.628906 303.289062 115.800781 C 303.929688 116.433594 305.347656 118.171875 304.167969 115.628906 L 303.84375 115.308594 C 302.699219 113.078125 301.699219 109.871094 301.980469 110.179688 C 301.832031 111.367188 301.917969 112.535156 302.234375 113.6875 Z M 302.234375 113.6875 " fill-opacity="1" fill-rule="nonzero"/><path fill="#373435" d="M 294.835938 101.097656 C 293.699219 99.777344 292.445312 98.554688 291.230469 97.320312 L 292.507812 99.714844 L 292.699219 99.378906 C 294.492188 101.738281 294.386719 100.988281 294.835938 101.097656 Z M 294.835938 101.097656 " fill-opacity="1" fill-rule="nonzero"/><path fill="#373435" d="M 276.257812 79.152344 L 277.253906 79.042969 C 276.269531 78.613281 275.21875 78.292969 274.21875 77.972656 Z M 276.257812 79.152344 " fill-opacity="1" fill-rule="nonzero"/><path fill="#373435" d="M 270.789062 74.96875 L 271.367188 74.613281 C 270.808594 74.347656 270.230469 74.109375 269.660156 73.851562 Z M 270.789062 74.96875 " fill-opacity="1" fill-rule="nonzero"/><path fill="#373435" d="M 71.261719 256.335938 L 72.152344 257.515625 C 71.875 257.105469 71.578125 256.710938 71.261719 256.335938 Z M 71.261719 256.335938 " fill-opacity="1" fill-rule="nonzero"/><path fill="#373435" d="M 66.230469 246.960938 L 65.835938 246.863281 C 66.210938 247.226562 66.414062 247.347656 66.230469 246.960938 Z M 66.230469 246.960938 " fill-opacity="1" fill-rule="nonzero"/><path fill="#373435" d="M 111.785156 68.082031 C 109.566406 68.800781 106.90625 69.410156 107.496094 69.863281 L 108.46875 70.066406 C 109.5 69.277344 110.601562 68.613281 111.785156 68.082031 Z M 111.785156 68.082031 " fill-opacity="1" fill-rule="nonzero"/><path fill="#373435" d="M 51.632812 161.300781 L 51.957031 160.710938 L 51.632812 159.125 C 51.632812 159.789062 51.589844 160.519531 51.632812 161.300781 Z M 51.632812 161.300781 " fill-opacity="1" fill-rule="nonzero"/><path fill="#373435" d="M 54.230469 163.371094 L 53.285156 166.097656 C 53.65625 165.207031 53.96875 164.300781 54.230469 163.371094 Z M 54.230469 163.371094 " fill-opacity="1" fill-rule="nonzero"/><path fill="#373435" d="M 111.078125 297.824219 C 111.675781 297.960938 112.265625 298.089844 112.878906 298.199219 C 110.679688 296.71875 111.453125 297.652344 111.078125 297.824219 Z M 111.078125 297.824219 " fill-opacity="1" fill-rule="nonzero"/><path fill="#373435" d="M 206.257812 48.570312 C 204.683594 48.121094 203.085938 47.761719 201.464844 47.5 C 203.769531 48.226562 205.5625 49.066406 206.257812 48.570312 Z M 206.257812 48.570312 " fill-opacity="1" fill-rule="nonzero"/><path fill="#373435" d="M 62.679688 256.28125 C 63.261719 257.042969 63.59375 257.351562 63.753906 257.226562 C 63.121094 256.429688 62.734375 256.023438 62.679688 256.28125 Z M 62.679688 256.28125 " fill-opacity="1" fill-rule="nonzero"/><path fill="#373435" d="M 195.8125 47.070312 C 196.15625 47.167969 196.488281 47.230469 196.886719 47.316406 C 198.429688 47.273438 199.964844 47.347656 201.496094 47.542969 C 199.640625 46.945312 197.742188 46.789062 195.8125 47.070312 Z M 195.8125 47.070312 " fill-opacity="1" fill-rule="nonzero"/><path fill="#373435" d="M 296.746094 262.898438 C 296.851562 262.792969 296.96875 262.640625 297.078125 262.542969 C 297.183594 262.449219 296.894531 262.621094 296.746094 262.898438 Z M 296.746094 262.898438 " fill-opacity="1" fill-rule="nonzero"/><path fill="#373435" d="M 325.296875 207.015625 C 325.296875 207.648438 325.125 208.679688 325.019531 209.65625 C 325.179688 208.78125 325.273438 207.902344 325.296875 207.015625 Z M 325.296875 207.015625 " fill-opacity="1" fill-rule="nonzero"/><path fill="#373435" d="M 247.296875 60.371094 C 248.636719 60.960938 247.542969 60.371094 247.296875 60.371094 Z M 247.296875 60.371094 " fill-opacity="1" fill-rule="nonzero"/><path fill="#373435" d="M 252.285156 66.023438 C 251.972656 65.949219 251.726562 65.9375 251.609375 66.023438 C 251.835938 65.9375 252.058594 65.9375 252.285156 66.023438 Z M 252.285156 66.023438 " fill-opacity="1" fill-rule="nonzero"/><path fill="#373435" d="M 181.441406 51.167969 L 181.320312 51.167969 C 181.738281 51.296875 181.664062 51.261719 181.441406 51.167969 Z M 181.441406 51.167969 " fill-opacity="1" fill-rule="nonzero"/><path fill="#373435" d="M 249.078125 61.644531 C 248.628906 61.324219 248.101562 60.960938 247.5 60.574219 C 247.757812 60.789062 248.230469 61.109375 249.078125 61.644531 Z M 249.078125 61.644531 " fill-opacity="1" fill-rule="nonzero"/><path fill="#373435" d="M 248.972656 61.21875 L 250.042969 61.859375 C 250.289062 61.839844 250.183594 61.730469 248.972656 61.21875 Z M 248.972656 61.21875 " fill-opacity="1" fill-rule="nonzero"/><path fill="#373435" d="M 245.378906 59.585938 C 246.148438 59.917969 246.847656 60.273438 247.523438 60.660156 C 247.285156 60.5 247.191406 60.414062 247.265625 60.421875 Z M 245.378906 59.585938 " fill-opacity="1" fill-rule="nonzero"/><path fill="#373435" d="M 203.910156 322.375 L 204.222656 322.375 C 205.574219 321.914062 204.972656 322.03125 203.910156 322.375 Z M 203.910156 322.375 " fill-opacity="1" fill-rule="nonzero"/><path fill="#373435" d="M 87.867188 97.128906 C 87.867188 97.128906 87.867188 97.042969 87.953125 96.988281 L 87.789062 97.117188 Z M 87.867188 97.128906 " fill-opacity="1" fill-rule="nonzero"/><path fill="#373435" d="M 84.960938 101.140625 C 85.445312 99.464844 86.394531 98.113281 87.800781 97.085938 C 86.933594 97.03125 86.042969 96.96875 85.183594 96.933594 Z M 84.960938 101.140625 " fill-opacity="1" fill-rule="nonzero"/><g clip-path="url(#3f2171660f)"><path fill="#373435" d="M 86.40625 276.734375 L 84.617188 273.710938 C 88.125 276.199219 89.816406 278.65625 88.359375 275.652344 C 87.875 275.921875 87.070312 275.4375 86.117188 274.578125 C 84.980469 273.527344 83.9375 272.390625 82.984375 271.167969 C 81.914062 269.871094 80.839844 268.574219 79.949219 267.648438 C 79.058594 266.726562 78.320312 266.128906 77.804688 266.351562 L 76.851562 264.207031 C 77.214844 264.753906 77.375 264.765625 77.742188 265.28125 C 76.011719 261.085938 74.523438 263.46875 71.660156 258.4375 C 70.746094 256.632812 70.359375 255.21875 71.25 256.292969 L 68.558594 252.6875 C 67.957031 251.527344 68.441406 251.613281 69.050781 252.773438 C 67.894531 250.820312 66.90625 248.792969 65.75 246.808594 L 65.835938 246.808594 C 64.832031 245.734375 63.90625 244.597656 63.054688 243.398438 C 62.628906 241.683594 63.625 244.097656 63.6875 243.582031 C 63.011719 242.507812 62.304688 241.4375 61.664062 240.363281 C 61.664062 239.539062 62.039062 239.804688 62.5625 240.578125 C 63.265625 241.585938 63.855469 242.660156 64.320312 243.796875 C 64.476562 243.128906 64.472656 242.460938 64.308594 241.796875 C 64.144531 241.128906 63.835938 240.539062 63.390625 240.019531 C 62.097656 238.054688 61.269531 235.910156 60.910156 233.585938 C 61.382812 234.65625 61.984375 235.730469 62.445312 236.800781 C 62.527344 235.457031 62.367188 234.140625 61.960938 232.855469 C 61.515625 231.195312 61.15625 229.511719 60.890625 227.8125 C 60.792969 228.789062 61.609375 235.996094 59.816406 232.328125 C 59.5 230.703125 58.917969 229.175781 58.078125 227.75 C 58.820312 227.503906 58.078125 225.488281 57.265625 222.914062 L 58.335938 222.816406 C 58.011719 221.984375 57.589844 221.207031 57.070312 220.476562 C 56.664062 220 56.304688 219.492188 56 218.945312 C 55.367188 215.726562 56 214.941406 56.523438 214.0625 C 55.785156 208.945312 55.902344 217.828125 54.625 211.820312 C 54.53125 210.75 54.402344 209.75 54.238281 208.785156 C 54.078125 207.820312 53.972656 206.886719 53.777344 205.933594 C 53.414062 204.011719 52.835938 202.019531 52.382812 199.445312 C 52.503906 196.386719 53.050781 199.925781 53.261719 198.8125 L 52.191406 196.183594 C 52.191406 195.527344 52.425781 195.722656 52.566406 195.816406 C 52.125 193.566406 51.492188 195.6875 51.128906 192.105469 C 50.570312 191.636719 50.871094 189.769531 51.300781 187.496094 C 51.902344 185.121094 52.023438 182.722656 51.664062 180.296875 C 52.039062 179.226562 52.253906 180.855469 52.671875 180.554688 C 52.480469 177.519531 52.425781 176.199219 52.332031 175.019531 C 52.234375 173.839844 52.179688 172.800781 51.921875 170.238281 C 52.320312 168.851562 52.714844 167.46875 53.210938 166.117188 C 51.890625 169.078125 51.699219 165.046875 51.589844 161.332031 C 51.023438 162.40625 50.519531 163.273438 50.269531 163.886719 C 50.421875 161.976562 50.5625 160.046875 50.851562 158.148438 C 51.171875 157.503906 51.386719 158.148438 51.589844 159.15625 C 51.589844 158.757812 51.589844 158.382812 51.589844 158.082031 C 52.417969 156.175781 52.757812 157.355469 52.996094 158.886719 L 51.921875 160.742188 C 52.289062 162.257812 52.738281 163.660156 53.382812 163.480469 C 53.320312 162.855469 53.320312 162.234375 53.382812 161.613281 C 53.488281 162 53.597656 162.257812 53.726562 162.117188 C 53.855469 161.976562 53.726562 161.324219 53.726562 160.378906 L 55.128906 159.382812 L 54.753906 158.984375 L 55.921875 155.507812 C 56.300781 154.351562 56.804688 153.226562 57.230469 152.089844 C 57.308594 150.757812 57.339844 149.449219 57.382812 148.121094 C 57.425781 146.789062 57.585938 145.4375 57.746094 143.980469 C 57.820312 143.25 57.917969 142.5 58.035156 141.714844 C 58.15625 140.933594 58.347656 140.148438 58.539062 139.3125 C 58.960938 137.449219 59.5 135.625 60.160156 133.832031 C 60.074219 136.074219 61.234375 134.777344 62.101562 135.28125 C 61.148438 136.105469 60.695312 137.671875 60.203125 139.484375 L 59.453125 142.359375 C 59.214844 143.394531 58.902344 144.40625 58.519531 145.394531 C 59.34375 143.304688 59.59375 143.9375 59.59375 144.527344 C 60.054688 141.996094 60.773438 139.539062 61.394531 137.019531 C 62.082031 137.488281 62.542969 135.730469 63.699219 134.070312 C 62.628906 134.433594 62.992188 132.996094 63.699219 131.128906 C 63.882812 130.65625 64.074219 130.152344 64.289062 129.636719 L 64.996094 128.125 C 65.425781 127.246094 65.804688 126.34375 66.136719 125.421875 C 66.703125 125.5 66.855469 126.421875 64.996094 129.714844 C 68.011719 126.558594 65.714844 123.964844 68.742188 120.863281 C 68.289062 121.679688 67.957031 122.078125 68.023438 122.527344 C 68.550781 121.140625 69.234375 119.835938 70.070312 118.613281 C 70.886719 117.410156 71.648438 116.691406 71.496094 117.335938 L 71.003906 118.117188 C 71.882812 116.84375 72.945312 115.222656 74.050781 113.472656 C 75.15625 111.726562 76.453125 109.96875 77.535156 108.25 C 78.621094 106.535156 79.683594 105.03125 80.433594 103.789062 C 80.996094 103.023438 81.332031 102.167969 81.441406 101.226562 C 81.828125 101.890625 82.070312 102.605469 82.171875 103.371094 C 83.339844 99.605469 84.605469 95.746094 86.160156 91.988281 C 86.34375 93.503906 90.921875 92.75 87.875 96.914062 C 88.542969 96.371094 89.179688 95.792969 89.785156 95.1875 C 90.503906 94.46875 91.289062 93.511719 92.273438 92.324219 C 91.425781 92.878906 89.269531 92.859375 90.183594 91.820312 C 93.851562 90.15625 92.542969 90.457031 96.726562 88.160156 C 95.417969 88.953125 95.449219 86.5 97.316406 84.941406 C 97.207031 85.394531 98.65625 86.199219 98.121094 86.90625 L 99.773438 84.277344 C 100.328125 83.398438 100.941406 82.582031 101.53125 81.726562 C 100.566406 82.90625 102.292969 83.078125 103.675781 82.667969 C 103.320312 82.667969 104.332031 81.941406 105.5625 81.007812 C 106.796875 80.074219 108.34375 79.117188 108.933594 78.582031 L 106.648438 79.65625 C 108.59375 78.421875 110.191406 76.839844 111.441406 74.902344 C 111.980469 74.148438 112.574219 73.441406 113.222656 72.78125 C 114.160156 71.785156 115.234375 70.960938 116.441406 70.3125 C 115.914062 71.042969 115.902344 73.273438 118.929688 71.792969 C 119.769531 70.183594 120.726562 68.652344 121.804688 67.191406 C 123.5 64.835938 125.578125 62.882812 128.035156 61.335938 L 129.3125 61.335938 C 130.640625 60.519531 131.960938 59.671875 133.34375 58.941406 C 132.273438 60.070312 130.125 62.246094 127.980469 64.382812 C 126.910156 65.453125 125.835938 66.613281 124.761719 67.597656 C 123.691406 68.585938 122.757812 69.574219 121.953125 70.324219 C 124.355469 69.539062 122.863281 70.550781 126.148438 68.8125 C 127.53125 68.660156 124.6875 70.398438 123.746094 70.957031 C 126.351562 69.746094 128.925781 68.5 131.597656 67.46875 C 131.199219 67.050781 132.582031 66.128906 134 65.21875 C 135.414062 64.304688 136.914062 63.554688 136.59375 63.191406 C 133.773438 64.628906 131.101562 66.410156 128.410156 67.953125 C 128.003906 67.546875 128.902344 66.289062 130.664062 64.832031 C 131.664062 63.988281 132.738281 63.246094 133.878906 62.601562 C 135.210938 61.875 136.585938 61.25 138.011719 60.734375 C 139.628906 60.550781 137.589844 62.964844 137.847656 63.253906 C 138.753906 62.617188 139.726562 62.109375 140.765625 61.730469 C 141.714844 61.28125 142.699219 60.953125 143.726562 60.746094 L 141.441406 62.128906 C 142.949219 61.730469 144.347656 61.101562 145.648438 60.242188 C 147.171875 59.363281 148.8125 58.898438 150.570312 58.847656 C 151.953125 58.480469 155.011719 59.136719 155.097656 58.472656 C 152.574219 57.785156 151.128906 54.179688 152.46875 52.9375 L 156.757812 52.65625 C 157.785156 52.601562 158.8125 52.601562 159.835938 52.65625 C 160.554688 52.664062 161.269531 52.714844 161.984375 52.808594 C 164.480469 53.34375 158.882812 55.703125 161.027344 56.164062 C 161.027344 55.863281 162.273438 55.273438 162.789062 55.09375 C 164.308594 55.09375 162.335938 56.101562 165.511719 55.402344 C 165.886719 54.234375 172.109375 54.652344 166.90625 54.332031 C 168.003906 54.058594 169.121094 53.914062 170.253906 53.890625 C 171.175781 53.890625 172.160156 53.828125 174.039062 53.6875 C 173.40625 53.375 174.1875 52.710938 175.550781 52.058594 C 177.113281 51.289062 178.761719 50.78125 180.484375 50.535156 C 180.300781 50.8125 181.054688 51.167969 181.40625 51.316406 C 183.070312 51.316406 184.539062 51.316406 185.902344 51.316406 C 187.265625 51.316406 188.53125 51.511719 189.773438 51.605469 L 193.550781 51.90625 C 194.847656 52.058594 196.21875 52.195312 197.753906 52.316406 C 198.300781 52.613281 201.21875 53.183594 199.898438 53.539062 C 201.101562 53.3125 202.308594 53.265625 203.523438 53.398438 C 207.03125 54.804688 199.320312 53.011719 201.957031 54.46875 C 202.257812 53.890625 206.914062 54.128906 209.628906 54.300781 C 209.304688 53.761719 207.773438 53.367188 205.96875 53.226562 C 204.167969 53.085938 202.109375 53.160156 200.757812 53.226562 C 200.820312 52.550781 202.066406 52.003906 204.125 51.660156 C 205.339844 51.457031 206.5625 51.347656 207.792969 51.328125 C 209.175781 51.328125 210.722656 51.390625 212.375 51.53125 C 214.992188 51.800781 215.472656 52.230469 215.453125 52.441406 C 215.429688 52.65625 214.871094 52.820312 215.332031 52.820312 C 217.128906 53.304688 218.953125 53.636719 220.804688 53.816406 C 221.921875 53.953125 223.046875 54.023438 224.171875 54.019531 C 225.199219 54.015625 226.21875 54.105469 227.230469 54.289062 C 228.753906 54.652344 230.210938 55.191406 231.605469 55.90625 C 234.394531 57.761719 231.175781 57.582031 231.605469 58.394531 C 229.929688 57.960938 228.308594 57.367188 226.746094 56.617188 C 225.484375 56.03125 224.183594 55.535156 222.851562 55.125 L 226.222656 56.367188 C 224.3125 56.199219 222.46875 55.765625 220.6875 55.058594 C 221.828125 55.636719 223.015625 56.097656 224.246094 56.445312 L 227.058594 57.3125 L 230.273438 58.386719 C 231.347656 58.773438 232.527344 59.148438 233.652344 59.574219 L 236.988281 60.949219 C 238.988281 61.789062 240.921875 62.761719 242.78125 63.878906 C 244.101562 64.15625 246.320312 64.832031 245.484375 64.070312 L 243.273438 63.203125 C 241.570312 61.667969 247.757812 64.167969 245.152344 62.632812 C 246.839844 63.085938 248.496094 63.628906 250.128906 64.253906 C 251.007812 64.585938 251.921875 64.972656 252.84375 65.421875 C 253.789062 65.929688 254.703125 66.488281 255.589844 67.09375 L 255.878906 68.382812 C 255.941406 68.09375 253.613281 66.398438 252.359375 66.03125 C 253.695312 66.699219 254.917969 67.535156 256.027344 68.53125 C 256.710938 69.058594 257.425781 69.535156 258.171875 69.957031 C 258.761719 70.355469 259.40625 70.582031 260.113281 70.632812 C 259.34375 69.882812 258.59375 69.089844 257.777344 68.382812 C 259.3125 68.960938 260.996094 69.667969 262.796875 70.453125 C 263.703125 70.84375 264.582031 71.292969 265.433594 71.792969 C 266.269531 72.316406 267.0625 72.898438 267.816406 73.53125 C 266.863281 71.664062 267 73.070312 265.273438 70.472656 C 266.605469 72.996094 256.523438 64.820312 259.140625 68.242188 C 258.277344 67.089844 257.230469 66.136719 256.007812 65.378906 C 254.632812 64.472656 253.335938 63.46875 252.113281 62.363281 C 252.113281 62.707031 253.046875 63.542969 250.074219 61.839844 C 249.808594 61.835938 249.542969 61.808594 249.28125 61.753906 L 249.089844 61.625 L 249.238281 61.742188 C 249.089844 61.742188 249.066406 61.742188 249.292969 61.742188 C 249.800781 62.082031 250.238281 62.492188 250.613281 62.976562 C 249.128906 62.691406 247.699219 62.238281 246.320312 61.613281 C 244.636719 61.003906 242.964844 60.335938 242.03125 60.144531 C 240.261719 59.179688 242.941406 60.144531 242.085938 59.382812 C 241.183594 59.179688 240.273438 58.996094 239.347656 58.847656 C 239.347656 58.085938 234.800781 55.757812 239.347656 57.121094 L 235.5 55.585938 C 233.085938 54.253906 230.535156 53.296875 227.839844 52.710938 C 225.921875 52.003906 222.679688 52.078125 224.535156 52.015625 C 223.464844 51.789062 222.339844 51.53125 221.234375 51.328125 L 217.898438 50.792969 L 217.898438 50.597656 C 214.542969 49.871094 211.15625 49.34375 207.738281 49.023438 C 204.082031 48.710938 200.460938 48.140625 196.886719 47.304688 C 195.8125 47.304688 194.621094 47.304688 193.300781 47.304688 C 191.984375 47.304688 190.472656 47.304688 188.59375 47.144531 L 187.875 46.5 C 186.4375 46.5 184.269531 46.5 182.308594 46.40625 C 180.34375 46.308594 178.585938 46.328125 178.019531 46.738281 C 176.839844 46.339844 175.625 46.171875 174.382812 46.242188 C 173.609375 46.242188 172.761719 46.242188 171.882812 46.339844 C 171.003906 46.4375 170.082031 46.554688 169.160156 46.695312 C 167.304688 46.996094 165.371094 47.25 163.613281 47.628906 C 161.855469 48.003906 160.253906 48.3125 158.980469 48.464844 L 158.980469 49.300781 C 157.25 49.605469 155.542969 50.019531 153.863281 50.535156 L 151.160156 51.339844 C 150.238281 51.648438 149.273438 52.015625 148.265625 52.410156 L 148.714844 53.035156 C 146.566406 53.851562 144.371094 54.511719 142.128906 55.007812 L 138.105469 56.078125 C 136.746094 56.496094 135.359375 57 134 57.550781 C 134.820312 56.976562 135.730469 56.617188 136.722656 56.476562 C 134.914062 56.71875 133.15625 57.171875 131.457031 57.839844 C 129.796875 58.609375 128.179688 59.464844 126.609375 60.402344 C 125.011719 61.269531 123.53125 62.3125 122.015625 63.148438 C 120.5625 63.984375 119.050781 64.699219 117.480469 65.292969 C 116.480469 66.125 115.367188 66.761719 114.144531 67.203125 C 114.257812 67.136719 114.367188 67.0625 114.464844 66.976562 L 113.898438 67.300781 C 113.191406 67.539062 112.496094 67.8125 111.816406 68.125 C 112.472656 67.921875 113.070312 67.683594 113.597656 67.480469 C 112.203125 68.351562 110.863281 69.292969 109.574219 70.3125 L 108.503906 70.085938 L 108.160156 70.335938 C 106.496094 71.0625 107.152344 71.40625 108.277344 71.40625 C 107.652344 71.929688 107.082031 72.507812 106.570312 73.144531 C 105.628906 73.046875 104.714844 73.820312 103.75 74.625 C 103.273438 75.019531 102.769531 75.378906 102.238281 75.699219 C 101.746094 76.042969 101.195312 76.246094 100.597656 76.308594 C 99.507812 77.644531 98.296875 78.863281 96.972656 79.964844 C 95.40625 81.597656 93.9375 83.269531 94.035156 84.097656 C 93.871094 84 93.410156 84.289062 94.140625 83.644531 C 92.5 84.722656 91.089844 86.050781 89.914062 87.625 L 88.617188 87.507812 L 87.542969 89.492188 L 86.472656 91.539062 C 84.207031 93.042969 83.179688 93.621094 84.464844 91.164062 C 83.566406 92.527344 82.910156 93.460938 82.40625 94.179688 C 81.902344 94.898438 81.558594 95.421875 81.203125 95.894531 C 80.21875 97.253906 79.347656 98.683594 78.585938 100.183594 L 78.253906 99.574219 C 77.066406 101.117188 75.832031 104.078125 74.695312 104.667969 C 73.359375 105.882812 72.167969 107.230469 71.121094 108.703125 C 70.371094 109.632812 69.621094 110.738281 68.859375 111.917969 L 66.414062 115.671875 C 63.195312 121.035156 59.882812 127.289062 57.179688 132.234375 C 58.496094 131.621094 57.738281 132.707031 56.867188 134.109375 C 56 135.515625 55.011719 137.234375 55.613281 137.703125 C 54.957031 138.144531 54.152344 139.515625 54.453125 137.703125 C 54.015625 139.078125 53.574219 140.257812 53.210938 141.328125 C 52.84375 142.402344 52.425781 143.347656 52.136719 144.257812 C 51.375 146.027344 51.019531 147.875 51.066406 149.804688 C 50.453125 150.316406 50.773438 148.441406 50.367188 148.933594 C 50.367188 149.765625 50.183594 150.558594 49.820312 151.304688 C 49.402344 151.796875 49.691406 150.394531 49.757812 149.460938 C 49.433594 150.59375 49.203125 151.742188 49.070312 152.914062 C 49.003906 153.636719 49.058594 154.351562 49.230469 155.058594 C 49.441406 155.871094 49.925781 156.464844 50.679688 156.839844 C 50.140625 157.921875 49.746094 159.054688 49.5 160.238281 C 49.378906 161.265625 49.4375 162.28125 49.671875 163.285156 C 49.082031 164.207031 48.339844 165.828125 48.832031 162.214844 L 48.234375 164.960938 L 47.816406 166.953125 L 47.503906 169.101562 C 47.128906 171.964844 46.890625 174.601562 47.4375 174.761719 C 47.175781 175.875 47.105469 176.996094 47.226562 178.132812 L 46.96875 180.886719 C 46.902344 181.628906 46.890625 182.25 46.859375 182.859375 C 46.859375 184.082031 46.785156 185.308594 46.773438 187.539062 L 46.976562 186.304688 C 48.136719 188.074219 47.246094 190.003906 47.480469 193.597656 L 47.355469 193.5 C 47.207031 194.890625 47.171875 196.28125 47.246094 197.671875 C 47.273438 198.25 47.339844 198.824219 47.449219 199.390625 C 47.558594 199.949219 47.617188 200.515625 47.632812 201.085938 L 47.632812 205.214844 L 48.339844 204.6875 C 49.210938 204.96875 49.199219 206.757812 49.113281 209.085938 C 48.996094 211.597656 49.246094 214.070312 49.863281 216.507812 L 49.992188 214.75 C 50.398438 216.402344 50.433594 218.066406 50.097656 219.738281 C 49.753906 221.445312 49.652344 223.167969 49.800781 224.90625 C 49.800781 225.496094 49.316406 224.101562 49.027344 223.339844 C 49.929688 230.25 50.238281 223.953125 51.847656 228.789062 C 51.601562 229.863281 50.140625 228.027344 51.074219 231.363281 C 51.152344 232.242188 52.363281 234.507812 53.648438 237.09375 C 54.347656 238.367188 55.066406 239.730469 55.644531 241.070312 C 55.933594 241.734375 56.203125 242.402344 56.40625 243.054688 C 56.632812 243.65625 56.816406 244.273438 56.953125 244.902344 C 56.953125 243.828125 56.878906 242.691406 58.144531 244.71875 C 59.6875 247.9375 60.921875 254.296875 63.722656 256.515625 C 63.851562 256.96875 63.839844 257.183594 63.722656 257.246094 C 64.578125 258.320312 65.757812 260.28125 67.066406 261.945312 C 68.007812 263.296875 69.09375 264.523438 70.316406 265.625 C 70.082031 266.546875 70.714844 267.769531 71.679688 269.25 C 72.777344 270.84375 74.003906 272.335938 75.359375 273.722656 C 76.730469 275.167969 78.007812 276.574219 78.921875 277.636719 C 79.832031 278.699219 80.25 279.523438 79.777344 279.910156 C 80.734375 280.984375 81.65625 282.054688 82.640625 283.074219 L 85.636719 286.109375 L 85.335938 286.109375 C 86.644531 287.628906 88.113281 288.972656 89.742188 290.144531 C 90.667969 290.804688 91.652344 291.367188 92.691406 291.828125 C 93.527344 292.769531 92.691406 292.339844 92.519531 292.375 C 94.394531 294.375 96.425781 296.195312 98.625 297.832031 C 100.636719 299.207031 102.765625 300.378906 105.007812 301.339844 L 105.101562 302.414062 C 105.878906 302.84375 106.59375 303.359375 107.246094 303.957031 C 108.246094 304.773438 109.566406 305.726562 111.011719 306.832031 C 111.742188 307.378906 112.515625 307.90625 113.320312 308.503906 C 114.125 309.105469 115.003906 309.578125 115.882812 310.09375 C 117.609375 311.167969 119.425781 312.0625 121.332031 312.773438 C 121.222656 312.773438 121.007812 312.882812 120.398438 312.699219 C 124.507812 314.339844 128.980469 317.085938 133.171875 319.070312 C 137.367188 321.054688 141.023438 322.351562 142.988281 321.496094 C 144.875 321.925781 146.816406 322.136719 148.726562 322.460938 C 141.636719 320.207031 150.128906 321.546875 147.332031 320.25 C 148.773438 320.597656 150.144531 321.125 151.449219 321.828125 C 152.425781 322.320312 152.597656 322.707031 150.847656 322.308594 L 150.34375 322.019531 C 148.648438 323.242188 159.183594 324.710938 158.808594 325.59375 C 165.953125 326.984375 173.152344 327.949219 180.410156 328.488281 L 185.773438 328.777344 C 187.554688 328.777344 189.324219 328.777344 191.136719 328.777344 C 192.015625 328.777344 192.90625 328.777344 193.773438 328.777344 L 196.402344 328.628906 C 198.152344 328.5 199.898438 328.46875 201.617188 328.230469 C 201.046875 327.910156 200.476562 327.597656 199.910156 327.234375 C 201.507812 327.105469 203.128906 326.890625 204.683594 326.71875 C 205.96875 326.835938 206.496094 327.414062 203.0625 327.792969 C 204.289062 327.914062 205.472656 327.742188 206.613281 327.277344 C 207.402344 327.070312 208.117188 326.710938 208.757812 326.203125 C 215.460938 325.496094 206.386719 328.015625 208.425781 327.683594 L 211.195312 327.105469 L 210.539062 327.105469 C 211.613281 326.664062 212.191406 326.3125 212.996094 326.03125 C 213.480469 325.839844 213.972656 325.679688 214.476562 325.550781 C 215.085938 325.355469 215.847656 325.164062 216.855469 324.949219 C 219.453125 324.59375 218.328125 325.355469 219.34375 325.164062 C 219.34375 325.25 219.710938 325.164062 220.902344 324.839844 C 222.875 324.359375 224.835938 323.769531 226.800781 323.296875 L 224.203125 323.070312 C 226.671875 321.914062 229.683594 321.527344 226.703125 321.3125 C 228.847656 321.484375 234.328125 319.886719 239.371094 317.804688 C 241.914062 316.808594 244.292969 315.585938 246.269531 314.726562 C 247.574219 314.042969 248.910156 313.425781 250.28125 312.882812 C 251.039062 312.304688 251.8125 311.808594 252.617188 311.25 C 253.421875 310.695312 254.195312 310.179688 255.03125 309.652344 C 256.695312 308.582031 258.527344 307.636719 260.457031 306.4375 C 259.386719 306.886719 258.3125 306.359375 261.648438 304.355469 C 261.648438 305.621094 263.3125 304.914062 265.347656 303.65625 C 267.296875 302.289062 269.382812 301.191406 271.613281 300.363281 C 270.164062 300.847656 272.363281 299.046875 274.347656 297.339844 C 276.332031 295.632812 277.984375 293.855469 275.828125 294.789062 C 278.433594 292.761719 276.503906 295.269531 278.734375 294.003906 C 280.121094 292.578125 281.566406 291.097656 283.121094 289.605469 L 285.535156 287.375 L 287.96875 285.015625 C 288.796875 284.210938 289.65625 283.429688 290.46875 282.589844 L 292.90625 279.996094 C 294.566406 278.226562 296.105469 276.355469 297.527344 274.386719 C 297.398438 274.097656 296.046875 275.117188 297 273.21875 C 298.460938 272.144531 299.789062 271.070312 301.183594 269.902344 C 301.53125 269.230469 301.722656 268.511719 301.765625 267.757812 C 302.097656 266.667969 302.722656 265.785156 303.640625 265.109375 C 303.167969 265.398438 302.472656 265.816406 303.09375 264.691406 C 308.886719 257.085938 313.175781 248.183594 316.585938 239.023438 C 320 229.863281 322.59375 220.414062 325.425781 210.996094 C 324.417969 213.503906 324.675781 211.769531 325.007812 209.785156 C 324.652344 211.050781 324.320312 209.644531 323.933594 209.847656 C 324.621094 207.230469 325.371094 204.59375 325.984375 201.933594 C 325.511719 201.136719 325.660156 198.972656 325.800781 196.878906 C 325.941406 194.789062 325.917969 192.773438 325.445312 192.332031 L 325.597656 194.734375 C 325.027344 193.007812 324.363281 194.175781 323.582031 195.667969 C 322.796875 197.160156 321.863281 198.972656 321.113281 198.671875 C 321.347656 199.742188 321.347656 200.816406 321.113281 201.890625 C 320.898438 203.058594 320.480469 204.3125 320.09375 205.644531 C 319.707031 206.972656 319.386719 208.378906 319.023438 209.816406 C 318.710938 211.316406 318.648438 212.832031 318.839844 214.351562 C 318.292969 215.609375 318.550781 213.140625 318.078125 213.773438 C 318.496094 215.414062 318.164062 217.25 317.113281 220.53125 L 317.039062 220.113281 C 316.589844 222.195312 316.035156 224.246094 315.375 226.269531 C 314.847656 228.015625 314.226562 229.726562 313.519531 231.40625 C 312.855469 233.070312 312.179688 234.773438 311.277344 236.621094 C 310.378906 238.464844 309.507812 240.566406 308.253906 242.960938 L 309.324219 242.539062 C 308.746094 243.722656 308.054688 244.828125 307.246094 245.867188 C 307.191406 248.792969 309.992188 239.957031 310.152344 242.648438 C 309.21875 243.609375 308.476562 244.699219 307.921875 245.917969 C 307.117188 247.433594 306.140625 249.203125 305.238281 250.972656 C 304.398438 252.613281 303.453125 254.191406 302.40625 255.710938 C 301.507812 257.019531 300.703125 257.964844 300.039062 258.15625 C 298.105469 261.140625 301.347656 257.738281 299.414062 260.742188 L 298.503906 261.277344 L 298.503906 262.351562 C 298.007812 263.117188 297.394531 263.765625 296.660156 264.304688 C 296.132812 264.667969 295.746094 264.785156 295.585938 264.699219 C 296.007812 264.097656 296.390625 263.46875 296.746094 262.824219 C 295.488281 264.175781 294.386719 265.644531 293.441406 267.230469 C 292.742188 268.382812 291.964844 269.472656 291.101562 270.503906 C 291.875 269.667969 292.667969 268.851562 293.429688 267.992188 C 292.023438 269.96875 290.511719 272.039062 288.851562 274.054688 C 287.1875 276.070312 285.4375 278.117188 283.5625 280.015625 L 280.828125 282.933594 L 278.050781 285.703125 C 276.28125 287.589844 274.421875 289.273438 272.816406 291.066406 L 273.585938 290.871094 C 272.953125 291.527344 272.417969 292.074219 271.933594 292.535156 C 271.453125 292.996094 270.992188 293.339844 270.605469 293.605469 C 269.8125 294.230469 269.1875 294.679688 268.546875 295.054688 L 266.324219 296.515625 C 265.414062 297.105469 264.265625 297.910156 262.699219 299.121094 L 262.882812 298.882812 C 261.523438 300.328125 259.984375 301.546875 258.269531 302.542969 C 259.71875 301.117188 254.675781 303.871094 256.628906 302.070312 C 253.519531 304.410156 252.691406 304.945312 252.273438 305.46875 C 251.546875 306.488281 250.707031 307.40625 249.753906 308.214844 L 248.414062 308.214844 C 247.75 308.859375 247.414062 309.289062 246.816406 309.75 C 245.816406 310.527344 244.746094 311.175781 243.597656 311.703125 C 246.355469 309.898438 240.90625 311.917969 243.941406 309.804688 C 242.175781 310.285156 240.464844 310.921875 238.8125 311.710938 C 237.355469 312.367188 236.109375 312.980469 234.984375 313.570312 C 232.753906 314.769531 230.941406 315.542969 228.839844 315.242188 C 227.304688 316.636719 229.0625 316.3125 230.984375 315.691406 C 232.902344 315.070312 234.929688 314.179688 233.996094 314.757812 C 234.929688 314.683594 234.308594 315.261719 233.128906 315.960938 C 231.777344 316.683594 230.363281 317.257812 228.890625 317.6875 C 227.492188 318.019531 226.082031 318.089844 224.65625 317.902344 C 223.65625 317.867188 222.65625 317.90625 221.664062 318.019531 C 221.082031 318.085938 220.460938 318.179688 219.785156 318.320312 C 219.109375 318.460938 218.359375 318.566406 217.554688 318.761719 C 218.199219 318.621094 218.207031 318.492188 218.851562 318.351562 C 217.601562 318.488281 216.390625 318.78125 215.214844 319.230469 C 214.605469 319.425781 213.972656 319.628906 213.296875 319.769531 C 212.585938 319.890625 211.871094 319.9375 211.152344 319.90625 C 209.648438 321.195312 207.257812 320.550781 206.96875 321.890625 L 212.941406 320.53125 C 211.269531 321 209.722656 321.742188 207.804688 322.40625 C 205.523438 323.15625 203.179688 323.511719 200.777344 323.480469 C 201.808594 322.96875 202.882812 322.566406 203.996094 322.277344 C 202.292969 322.097656 200.777344 322.984375 199.050781 322.71875 C 199.246094 322.097656 201.078125 321.816406 203.34375 321.484375 C 204.414062 321.324219 205.667969 321.171875 206.828125 320.949219 C 207.894531 320.71875 208.925781 320.390625 209.929688 319.960938 C 208.613281 320.042969 207.328125 320.292969 206.078125 320.710938 C 204.8125 321 203.984375 321.121094 204.8125 320.324219 C 203.609375 321.398438 201.980469 321.515625 200.125 321.644531 C 198.019531 321.566406 195.96875 321.859375 193.96875 322.523438 L 194.214844 321.742188 C 193.085938 322.089844 191.929688 322.289062 190.75 322.34375 L 193.066406 321.269531 C 189.472656 322.191406 186.09375 320.777344 182.652344 321.066406 C 186.265625 321.152344 186.675781 321.378906 186.566406 321.675781 C 186.460938 321.976562 185.804688 322.375 187.351562 322.609375 C 178.296875 323.46875 182.203125 320.691406 172.246094 320.261719 C 173.597656 320.261719 177.277344 321.121094 175.132812 321.335938 C 174.1875 321.171875 173.085938 321.011719 172.097656 320.746094 C 171.261719 320.535156 170.449219 320.253906 169.664062 319.90625 C 163.078125 319.230469 170.574219 320.820312 167.710938 320.925781 C 165.566406 319.757812 164.429688 320.796875 161.46875 320.59375 L 161.585938 319.832031 C 160.664062 319.605469 159.933594 319.457031 159.355469 319.359375 C 158.917969 319.261719 158.472656 319.199219 158.023438 319.167969 C 157.605469 319.113281 157.214844 319.199219 156.855469 319.425781 C 156.375 319.714844 155.976562 320.015625 152.683594 318.941406 L 155.761719 318.546875 C 154.582031 318.351562 153.390625 318.222656 152.222656 317.988281 C 152.53125 317.761719 152.84375 317.558594 153.15625 317.324219 C 151.664062 317.195312 150.195312 316.9375 148.746094 316.550781 C 147.328125 316.148438 145.949219 315.644531 144.605469 315.039062 C 145.273438 315.84375 143.707031 316.21875 140.476562 315.15625 C 138.472656 313.933594 141.925781 314.953125 137.429688 313.3125 C 138.179688 313.203125 138.921875 313.253906 139.652344 313.457031 C 140.378906 313.660156 141.039062 314 141.625 314.480469 C 141.914062 314.308594 142.792969 314.363281 143.074219 314.191406 C 140.691406 313.0625 138.242188 312.105469 135.726562 311.316406 C 136.304688 311.550781 136.859375 311.832031 137.386719 312.164062 C 136.261719 311.90625 135.113281 311.671875 133.976562 311.390625 L 130.609375 310.457031 C 129.742188 309.738281 130.609375 309.890625 131.5 310.027344 C 130.066406 309.636719 128.65625 309.171875 127.273438 308.625 C 128.023438 308.292969 128.183594 307.703125 130.941406 308.625 C 128.796875 307.980469 126.824219 307.15625 124.761719 306.371094 C 124.484375 305.941406 122.144531 304.160156 123.003906 304.34375 C 121.1875 303.207031 119.28125 302.257812 117.277344 301.5 C 115.027344 300.535156 112.933594 299.296875 111 297.789062 C 110.414062 297.625 109.867188 297.371094 109.359375 297.027344 C 108.460938 296.34375 107.601562 295.644531 106.765625 294.949219 C 105.929688 294.25 105.144531 293.46875 104.296875 292.738281 C 103.449219 292.007812 102.5625 291.300781 101.605469 290.59375 C 100.613281 289.796875 99.578125 289.0625 98.496094 288.394531 C 97.992188 287.441406 97.421875 286.527344 96.984375 285.542969 C 93.765625 282.839844 99.011719 289.445312 93.636719 284.910156 C 89.785156 281.691406 92.960938 282.945312 91.964844 281.496094 C 90.558594 280.621094 89.207031 279.671875 87.910156 278.644531 C 86.238281 277.238281 84.863281 275.585938 83.777344 273.6875 C 84.777344 274.730469 85.429688 275.726562 86.40625 276.734375 Z M 59.804688 232.457031 C 60.042969 232.910156 60.4375 233.53125 60.761719 234.21875 C 61.105469 234.730469 61.28125 235.292969 61.285156 235.910156 C 60.03125 235.171875 60.105469 234.183594 59.816406 232.457031 Z M 54.828125 153.976562 C 54.769531 155.09375 54.464844 156.140625 53.917969 157.117188 C 54.085938 156.03125 54.390625 154.984375 54.828125 153.976562 Z M 232.207031 54.867188 L 232.089844 54.867188 C 229.933594 53.871094 230.695312 54.222656 232.207031 54.910156 Z M 236.710938 56.875 C 237.214844 56.949219 237.214844 56.875 237.066406 56.660156 C 236.15625 56.53125 235.300781 56.25 234.492188 55.820312 C 235.117188 56.414062 235.859375 56.78125 236.710938 56.917969 Z M 219.808594 324.679688 L 218.832031 324.679688 C 220.878906 323.996094 220.34375 324.328125 219.808594 324.679688 Z M 219.808594 324.679688 " fill-opacity="1" fill-rule="nonzero"/></g><path fill="#373435" d="M 53.90625 163.105469 C 53.792969 163.292969 53.628906 163.414062 53.414062 163.457031 C 53.46875 163.875 53.617188 163.90625 53.90625 163.105469 Z M 53.90625 163.105469 " fill-opacity="1" fill-rule="nonzero"/><path fill="#373435" d="M 110.746094 297.703125 L 110.875 297.800781 C 110.941406 297.820312 111.007812 297.820312 111.078125 297.800781 Z M 110.746094 297.703125 " fill-opacity="1" fill-rule="nonzero"/><path fill="#373435" d="M 162.957031 56.144531 C 162.320312 56.207031 161.683594 56.1875 161.050781 56.078125 C 161.039062 56.273438 161.488281 56.367188 162.957031 56.144531 Z M 162.957031 56.144531 " fill-opacity="1" fill-rule="nonzero"/><path fill="#373435" d="M 260.726562 67.339844 C 259.816406 66.804688 258.839844 66.367188 257.894531 65.882812 C 258.738281 66.328125 259.496094 66.890625 260.167969 67.566406 C 260.253906 67.375 259.878906 66.816406 260.726562 67.339844 Z M 260.726562 67.339844 " fill-opacity="1" fill-rule="nonzero"/><path fill="#373435" d="M 279.378906 87.550781 C 279.765625 87.785156 280.078125 88.203125 280.453125 88.429688 L 280.613281 88.085938 C 279.21875 86.777344 278.058594 86.070312 279.378906 87.550781 Z M 279.378906 87.550781 " fill-opacity="1" fill-rule="nonzero"/><path fill="#373435" d="M 261.800781 71.097656 C 261.722656 71.4375 262.132812 71.824219 262.785156 72.265625 C 263.117188 72.480469 263.515625 72.714844 263.945312 72.960938 L 265.273438 73.800781 L 264.964844 73.574219 C 265.488281 73.378906 265.230469 73.015625 264.578125 72.5 C 263.683594 71.96875 262.757812 71.503906 261.800781 71.097656 Z M 261.800781 71.097656 " fill-opacity="1" fill-rule="nonzero"/><path fill="#373435" d="M 265.703125 74.054688 C 266.273438 74.421875 266.839844 74.808594 267.355469 75.214844 C 267.773438 75.066406 266.734375 74.679688 265.703125 74.054688 Z M 265.703125 74.054688 " fill-opacity="1" fill-rule="nonzero"/><path fill="#373435" d="M 242.664062 58.878906 C 243.554688 59.46875 243.609375 58.386719 244.035156 58.878906 C 244.746094 58.738281 243.039062 58.246094 241.890625 58.03125 C 241.300781 57.914062 240.820312 57.914062 240.820312 58.03125 C 240.820312 58.148438 241.3125 58.386719 242.664062 58.878906 Z M 242.664062 58.878906 " fill-opacity="1" fill-rule="nonzero"/><path fill="#373435" d="M 262.097656 73.839844 L 261.894531 72.757812 L 260.523438 72.640625 Z M 262.097656 73.839844 " fill-opacity="1" fill-rule="nonzero"/><path fill="#373435" d="M 247.664062 64.808594 L 250.632812 66.582031 C 250.632812 66.441406 251.074219 66.582031 251.589844 66.761719 C 249.699219 65.777344 247.695312 64.5625 247.664062 64.808594 Z M 247.664062 64.808594 " fill-opacity="1" fill-rule="nonzero"/><path fill="#373435" d="M 251.589844 66.761719 C 252.382812 67.246094 253.214844 67.664062 254.078125 68.015625 C 253.269531 67.550781 252.441406 67.132812 251.589844 66.761719 Z M 251.589844 66.761719 " fill-opacity="1" fill-rule="nonzero"/><path fill="#373435" d="M 258.023438 71.515625 L 257.25 70.828125 L 255.179688 69.5625 C 256.113281 70.214844 257.101562 70.804688 258.023438 71.515625 Z M 258.023438 71.515625 " fill-opacity="1" fill-rule="nonzero"/><path fill="#373435" d="M 212.632812 52.753906 L 208.875 52.316406 C 208.457031 52.519531 209.433594 52.863281 210.828125 53 C 211.75 52.980469 213.15625 53.152344 212.632812 52.753906 Z M 212.632812 52.753906 " fill-opacity="1" fill-rule="nonzero"/><path fill="#373435" d="M 223.132812 57.527344 C 222.582031 57.273438 222.109375 56.914062 221.714844 56.453125 L 221.351562 57.386719 Z M 223.132812 57.527344 " fill-opacity="1" fill-rule="nonzero"/><path fill="#373435" d="M 212.566406 55.222656 C 212.136719 55.425781 207.140625 55.058594 211.761719 55.820312 C 212.179688 55.585938 215.859375 56.089844 212.566406 55.222656 Z M 212.566406 55.222656 " fill-opacity="1" fill-rule="nonzero"/><path fill="#373435" d="M 156.8125 54.554688 L 157.734375 54.320312 L 157.261719 52.753906 Z M 156.8125 54.554688 " fill-opacity="1" fill-rule="nonzero"/><path fill="#373435" d="M 113.40625 76.972656 C 117.246094 74.988281 113.714844 75.546875 117.289062 73.894531 C 117.941406 73.015625 114.371094 75.257812 115.078125 74.421875 C 113.070312 76.167969 111.796875 76.75 113.40625 76.972656 Z M 113.40625 76.972656 " fill-opacity="1" fill-rule="nonzero"/><path fill="#373435" d="M 115.066406 74.410156 C 115.390625 74.132812 115.722656 73.820312 116.066406 73.476562 C 115.707031 73.761719 115.375 74.074219 115.066406 74.410156 Z M 115.066406 74.410156 " fill-opacity="1" fill-rule="nonzero"/><path fill="#373435" d="M 327.21875 196.398438 C 327.433594 195.433594 327.527344 194.445312 327.679688 193.46875 L 327.078125 195.347656 C 327.132812 195.699219 327.164062 196.054688 327.21875 196.398438 Z M 327.21875 196.398438 " fill-opacity="1" fill-rule="nonzero"/><path fill="#373435" d="M 326.1875 190.734375 L 327.261719 190.058594 L 326.359375 188.300781 C 326.445312 189.121094 326.390625 189.933594 326.1875 190.734375 Z M 326.1875 190.734375 " fill-opacity="1" fill-rule="nonzero"/><path fill="#373435" d="M 59.507812 224.511719 L 59.207031 224.382812 C 59.125 225.195312 59.234375 225.980469 59.527344 226.742188 Z M 59.507812 224.511719 " fill-opacity="1" fill-rule="nonzero"/><path fill="#373435" d="M 73.953125 258.769531 L 73.621094 258.222656 L 73.480469 259.734375 Z M 73.953125 258.769531 " fill-opacity="1" fill-rule="nonzero"/><path fill="#373435" d="M 94.496094 282.28125 C 93.582031 281.402344 92.402344 280.457031 91.554688 279.503906 C 93.5625 281.410156 93.914062 283.351562 94.496094 282.28125 Z M 94.496094 282.28125 " fill-opacity="1" fill-rule="nonzero"/><path fill="#fffcf9" d="M 141.363281 212.59375 C 147.300781 208.835938 153.355469 215.167969 156.855469 219.628906 C 151.863281 211.667969 155.164062 196.886719 166.800781 199.597656 C 170.042969 200.425781 172.738281 202.84375 174.308594 205.832031 C 171.8125 200.445312 172.265625 192.40625 178.339844 189.789062 C 185.121094 187.234375 190.980469 193.484375 194.496094 198.617188 C 194.949219 196.550781 167.902344 158.554688 180.421875 153.226562 C 186.59375 150.828125 194.714844 159.359375 200.394531 166.359375 C 202.222656 160.441406 203.738281 154.703125 209.632812 152.636719 C 216.394531 150.199219 223.195312 156.648438 222.648438 163.585938 C 222.566406 167.597656 220.957031 170.40625 219.226562 174.023438 C 217.476562 177.621094 216.316406 180.707031 214.785156 185.152344 L 214.527344 185.328125 C 222.488281 197.929688 233.734375 214.441406 225.183594 229.183594 C 214.429688 242.492188 199.390625 250.273438 185.574219 260.042969 C 179.285156 264.367188 171.851562 268.339844 164.382812 266.746094 C 153.101562 264.9375 146.042969 247.621094 142.011719 239.914062 C 138.808594 231.875 132.636719 218.785156 141.363281 212.59375 Z M 141.363281 212.59375 " fill-opacity="1" fill-rule="nonzero"/><path fill="#ff93b9" d="M 193.96875 110.21875 C 198.035156 113.109375 199.804688 116.195312 201.160156 121.894531 C 201.871094 118.199219 202.65625 115.328125 204.894531 112.300781 C 209.515625 106.109375 220.347656 105.65625 224.121094 113.089844 C 230.550781 127.203125 211.402344 139.371094 200.21875 143.164062 C 189.996094 137.933594 167.035156 120.8125 181.269531 109.097656 C 185.457031 106.34375 189.898438 107.308594 193.96875 110.21875 Z M 193.96875 110.21875 " fill-opacity="1" fill-rule="nonzero"/><path fill="#373435" d="M 192.964844 199.519531 C 190.035156 195.453125 185.988281 190.417969 180.441406 191.027344 C 180.523438 191.027344 180.738281 190.96875 180.382812 191.046875 C 179.914062 191.125 179.441406 191.265625 178.988281 191.441406 C 178.4375 191.636719 179.144531 191.363281 178.871094 191.5 C 178.515625 191.65625 178.203125 191.855469 177.886719 192.070312 C 177.828125 192.109375 177.535156 192.324219 177.789062 192.128906 C 177.355469 192.464844 176.964844 192.855469 176.609375 193.25 C 176.375 193.5625 176.511719 193.347656 176.277344 193.683594 C 175.804688 194.332031 175.371094 195.214844 175.234375 195.628906 C 174.996094 196.257812 174.839844 196.90625 174.722656 197.554688 C 174.703125 197.613281 174.664062 197.910156 174.722656 197.574219 C 174.328125 200.679688 175.253906 203.804688 176.570312 206.578125 C 175.488281 207.03125 174.410156 207.480469 173.347656 207.933594 C 173.011719 206.96875 172.285156 205.730469 171.617188 204.847656 C 171.675781 204.925781 171.695312 204.945312 171.675781 204.945312 C 171.105469 204.238281 170.496094 203.628906 169.808594 203.058594 C 169.769531 203.019531 169.554688 202.863281 169.769531 203.019531 C 168.609375 202.015625 166.425781 201.210938 165.5625 201.152344 C 164.816406 201.074219 164.070312 201.074219 163.320312 201.152344 C 163.714844 201.113281 163.164062 201.171875 163.085938 201.191406 C 162.535156 201.289062 161.984375 201.445312 161.472656 201.625 C 161.433594 201.644531 160.941406 201.839844 161.296875 201.683594 C 159.882812 202.351562 159.273438 202.785156 158.289062 203.960938 C 158.328125 203.902344 158.464844 203.707031 158.289062 203.984375 C 157.9375 204.492188 157.640625 205.042969 157.386719 205.613281 C 157.542969 205.261719 157.347656 205.730469 157.328125 205.769531 C 157.089844 206.378906 156.914062 207.007812 156.777344 207.636719 C 156.71875 207.914062 156.65625 208.1875 156.617188 208.445312 C 156.617188 208.484375 156.539062 209.035156 156.578125 208.640625 C 156.382812 210.175781 156.402344 211.726562 156.597656 213.242188 C 156.65625 213.910156 157.1875 216.070312 157.640625 217.152344 C 157.835938 217.761719 159.585938 219.945312 157.976562 221.003906 C 155.578125 222.519531 154.398438 218.726562 152.785156 217.546875 C 150.582031 215.128906 146.949219 212.886719 144.550781 213.203125 C 143.292969 213.398438 142.464844 213.96875 141.464844 214.675781 C 141.757812 214.460938 141.363281 214.753906 141.324219 214.792969 C 141.128906 214.949219 140.953125 215.109375 140.773438 215.285156 C 140.675781 215.382812 140.578125 215.480469 140.480469 215.601562 C 140.421875 215.660156 140.046875 216.148438 140.324219 215.777344 C 140.027344 216.191406 139.773438 216.621094 139.554688 217.09375 C 137.136719 224.699219 141.246094 233.980469 144.628906 241.292969 C 148.617188 248.484375 151.78125 256.605469 158.308594 261.953125 C 158.957031 262.480469 161.355469 263.9375 162.140625 264.210938 C 171.992188 268.300781 181.742188 260.515625 189.898438 254.992188 C 201.28125 246.914062 218.125 237.890625 225.085938 225.644531 C 224.964844 225.917969 225.203125 225.351562 225.183594 225.371094 C 225.695312 224.03125 226.046875 222.617188 226.285156 221.203125 C 226.285156 221.203125 226.363281 220.59375 226.324219 220.925781 C 228.050781 204.238281 211.679688 184.207031 201.847656 171.039062 C 199.078125 167.359375 193.652344 160.816406 189.664062 157.789062 C 188.660156 156.921875 186.105469 155.449219 185.613281 155.292969 C 184.90625 155.015625 184.179688 154.78125 183.429688 154.664062 C 183.234375 154.625 183.214844 154.523438 183.527344 154.683594 C 182.210938 154.542969 181.976562 154.625 180.777344 155.015625 C 181.230469 154.839844 180.855469 154.976562 180.777344 155.035156 C 180.660156 155.113281 179.539062 155.742188 180.207031 155.351562 C 179.972656 155.507812 179.773438 155.742188 179.578125 155.960938 C 179.460938 156.097656 179.34375 156.097656 179.636719 155.882812 C 179.402344 156.195312 179.183594 156.570312 179.027344 156.921875 C 179.066406 156.53125 179.105469 156.6875 179.046875 156.882812 C 178.890625 157.355469 178.753906 157.828125 178.714844 158.320312 C 178.417969 160.421875 179.539062 165.140625 181.03125 168.363281 C 184.765625 176.679688 190.546875 187.550781 195.34375 196.511719 C 196.050781 197.613281 196.894531 199.34375 195.382812 200.1875 C 194.578125 200.601562 193.4375 200.40625 192.964844 199.519531 C 189.957031 193.957031 187.007812 188.355469 184.117188 182.714844 C 180.757812 174.929688 169.160156 158.398438 178.988281 151.949219 C 189.976562 147.625 199.960938 163.527344 206.015625 170.722656 C 216.296875 184.933594 236.878906 209.113281 227.5625 228.613281 C 224.316406 234.3125 218.832031 238.34375 213.917969 242.511719 C 206.175781 248.664062 197.800781 253.929688 189.601562 259.433594 C 181.859375 264.859375 172.582031 270.992188 162.710938 268.144531 C 152.804688 265.195312 148.046875 255.167969 143.488281 246.757812 C 138.867188 237.28125 132.734375 226.136719 136.429688 215.421875 C 142.347656 204.886719 152.6875 210.726562 158.132812 218.371094 C 157.207031 219.078125 156.285156 219.804688 155.359375 220.515625 C 151.054688 213.203125 151.863281 200.328125 161.453125 197.910156 C 168.039062 196.082031 174.664062 200.796875 176.765625 206.96875 C 177.394531 208.859375 174.449219 210.117188 173.542969 208.328125 C 169.179688 200.777344 170.554688 188.140625 181.03125 187.429688 C 187.734375 187.175781 192.511719 192.71875 196.050781 197.710938 C 197.191406 199.738281 194.203125 201.484375 192.964844 199.519531 Z M 192.964844 199.519531 " fill-opacity="1" fill-rule="nonzero"/><path fill="#373435" d="M 213.074219 184.679688 C 214.824219 179.214844 217.261719 174.042969 219.71875 168.875 C 219.660156 169.011719 219.601562 169.148438 219.539062 169.289062 C 220.148438 167.851562 220.601562 166.378906 220.820312 164.824219 C 220.800781 164.984375 220.78125 165.140625 220.757812 165.296875 C 220.917969 164.058594 220.9375 162.820312 220.78125 161.582031 C 220.800781 161.738281 220.820312 161.898438 220.839844 162.054688 C 220.679688 160.914062 220.386719 159.8125 219.953125 158.75 C 220.011719 158.890625 220.070312 159.027344 220.128906 159.164062 C 219.757812 158.300781 219.304688 157.492188 218.714844 156.746094 C 218.8125 156.863281 218.890625 156.980469 218.992188 157.101562 C 218.519531 156.492188 217.988281 155.960938 217.378906 155.488281 C 217.496094 155.585938 217.613281 155.664062 217.734375 155.761719 C 217.042969 155.234375 216.277344 154.839844 215.492188 154.503906 C 215.628906 154.566406 215.765625 154.625 215.90625 154.683594 C 214.980469 154.289062 214.015625 154.015625 213.035156 153.875 C 213.191406 153.894531 213.347656 153.914062 213.507812 153.933594 C 212.777344 153.835938 212.050781 153.835938 211.34375 153.914062 C 211.5 153.894531 211.660156 153.875 211.816406 153.855469 C 211.089844 153.957031 210.421875 154.171875 209.75 154.445312 C 209.890625 154.386719 210.027344 154.328125 210.164062 154.269531 C 209.183594 154.683594 208.21875 155.175781 207.355469 155.824219 C 207.472656 155.722656 207.589844 155.644531 207.707031 155.546875 C 207.097656 156.019531 206.546875 156.589844 206.054688 157.199219 C 206.15625 157.082031 206.234375 156.960938 206.332031 156.84375 C 205.308594 158.179688 204.503906 159.695312 203.855469 161.226562 C 203.914062 161.089844 203.972656 160.953125 204.03125 160.816406 C 203.324219 162.484375 202.792969 164.214844 202.339844 165.984375 C 202.105469 166.890625 201.0625 167.519531 200.160156 167.222656 C 196.601562 166.222656 202.085938 156.511719 203.539062 154.722656 C 205.113281 152.714844 207.453125 151.417969 209.851562 150.671875 C 219.480469 148.472656 226.324219 158.121094 223.964844 167.027344 C 222.980469 171.097656 220.621094 174.652344 219.089844 178.507812 C 219.148438 178.371094 219.207031 178.230469 219.265625 178.09375 C 218.222656 180.570312 217.320312 183.085938 216.433594 185.621094 C 216.277344 186.054688 216.023438 186.449219 215.628906 186.683594 C 214.410156 187.488281 212.582031 186.132812 213.074219 184.679688 Z M 213.074219 184.679688 " fill-opacity="1" fill-rule="nonzero"/><path fill="#373435" d="M 199.746094 141.433594 C 201.0625 141.019531 202.359375 140.53125 203.636719 140 C 203.5 140.058594 203.363281 140.117188 203.226562 140.175781 C 206.746094 138.679688 210.085938 136.753906 213.09375 134.414062 C 212.976562 134.515625 212.859375 134.59375 212.738281 134.691406 C 215.648438 132.429688 218.300781 129.835938 220.5625 126.945312 C 220.464844 127.0625 220.386719 127.183594 220.289062 127.300781 C 221.347656 125.925781 222.273438 124.449219 222.941406 122.839844 C 222.882812 122.976562 222.824219 123.113281 222.765625 123.25 C 223.238281 122.109375 223.589844 120.910156 223.765625 119.691406 C 223.746094 119.851562 223.726562 120.007812 223.707031 120.164062 C 223.847656 119.160156 223.847656 118.140625 223.726562 117.136719 C 223.746094 117.292969 223.765625 117.453125 223.785156 117.609375 C 223.648438 116.605469 223.375 115.644531 223 114.71875 C 223.058594 114.855469 223.117188 114.996094 223.175781 115.132812 C 222.785156 114.226562 222.3125 113.363281 221.703125 112.597656 C 221.800781 112.714844 221.878906 112.832031 221.976562 112.949219 C 221.390625 112.183594 220.679688 111.496094 219.914062 110.886719 C 220.03125 110.984375 220.148438 111.0625 220.269531 111.160156 C 219.5 110.570312 218.65625 110.0625 217.753906 109.6875 C 217.890625 109.746094 218.027344 109.804688 218.164062 109.863281 C 217.398438 109.550781 216.59375 109.3125 215.765625 109.195312 C 215.925781 109.214844 216.082031 109.234375 216.238281 109.253906 C 215.355469 109.136719 214.46875 109.195312 213.585938 109.3125 C 213.742188 109.292969 213.898438 109.273438 214.058594 109.253906 C 212.699219 109.433594 211.363281 109.785156 210.105469 110.316406 C 210.242188 110.257812 210.378906 110.199219 210.519531 110.140625 C 209.535156 110.570312 208.59375 111.101562 207.726562 111.75 C 207.84375 111.652344 207.964844 111.574219 208.082031 111.476562 C 207.394531 112.007812 206.765625 112.636719 206.234375 113.324219 C 206.332031 113.207031 206.410156 113.089844 206.507812 112.96875 C 205.605469 114.128906 204.855469 115.425781 204.285156 116.785156 C 204.347656 116.644531 204.40625 116.507812 204.464844 116.371094 C 203.65625 118.277344 203.207031 120.300781 202.8125 122.328125 C 202.734375 122.699219 202.457031 123.035156 202.183594 123.25 C 198.84375 125.136719 199.097656 119.417969 197.917969 117.628906 C 197.976562 117.765625 198.035156 117.902344 198.09375 118.042969 C 197.5625 116.804688 196.894531 115.605469 196.070312 114.542969 C 196.167969 114.660156 196.246094 114.777344 196.34375 114.894531 C 195.480469 113.796875 194.476562 112.832031 193.359375 111.96875 C 193.476562 112.066406 193.59375 112.144531 193.710938 112.242188 C 192.492188 111.300781 191.175781 110.472656 189.761719 109.882812 C 189.898438 109.941406 190.035156 110 190.171875 110.0625 C 189.210938 109.667969 188.207031 109.371094 187.183594 109.214844 C 187.34375 109.234375 187.5 109.253906 187.65625 109.273438 C 186.832031 109.175781 186.007812 109.15625 185.199219 109.273438 C 185.355469 109.253906 185.515625 109.234375 185.671875 109.214844 C 184.847656 109.332031 184.058594 109.550781 183.292969 109.863281 C 183.429688 109.804688 183.570312 109.746094 183.707031 109.6875 C 182.820312 110.0625 181.996094 110.570312 181.230469 111.160156 C 181.347656 111.0625 181.464844 110.984375 181.582031 110.886719 C 180.894531 111.417969 180.265625 112.046875 179.714844 112.734375 C 179.8125 112.617188 179.894531 112.5 179.992188 112.378906 C 179.539062 112.96875 179.164062 113.617188 178.871094 114.308594 C 178.929688 114.167969 178.988281 114.03125 179.046875 113.894531 C 178.753906 114.601562 178.554688 115.347656 178.4375 116.113281 C 178.457031 115.957031 178.476562 115.800781 178.496094 115.644531 C 178.359375 116.605469 178.378906 117.589844 178.515625 118.574219 C 178.496094 118.414062 178.476562 118.257812 178.457031 118.101562 C 178.652344 119.496094 179.066406 120.832031 179.597656 122.128906 C 179.539062 121.992188 179.480469 121.855469 179.421875 121.71875 C 180.226562 123.605469 181.289062 125.375 182.546875 127.003906 C 182.449219 126.886719 182.371094 126.769531 182.269531 126.652344 C 185.277344 130.289062 188.816406 133.492188 192.511719 136.441406 C 192.394531 136.34375 192.277344 136.265625 192.160156 136.164062 C 194.910156 138.289062 197.859375 140.136719 200.984375 141.628906 C 201.359375 141.808594 201.691406 142.296875 201.789062 142.691406 C 202.222656 144.164062 200.53125 145.484375 199.195312 144.695312 C 191.765625 141.078125 185.296875 135.574219 179.914062 129.363281 C 173.167969 121.382812 172.167969 109.292969 184.039062 105.972656 C 193.257812 104.359375 201.28125 112.871094 202.734375 121.441406 C 201.59375 121.441406 200.453125 121.441406 199.3125 121.441406 C 200.082031 117.292969 201.4375 113.046875 204.445312 109.960938 C 209.515625 104.910156 218.753906 104.007812 223.6875 109.746094 C 231.707031 118.550781 224.535156 129.480469 216.964844 135.714844 C 212.207031 139.859375 206.566406 142.988281 200.53125 144.894531 C 198.488281 145.484375 197.523438 142.0625 199.746094 141.433594 Z M 199.746094 141.433594 " fill-opacity="1" fill-rule="nonzero"/><g fill="#545454" fill-opacity="1"><g transform="translate(101.224059, 175.395891)"><g><path d="M 14.265625 15.625 C 13.921875 15.507812 13.6875 14.941406 13.5625 13.921875 C 13.445312 12.898438 13.414062 11.210938 13.46875 8.859375 C 13.507812 7.242188 13.582031 5.328125 13.6875 3.109375 C 13.800781 0.890625 13.9375 -1.472656 14.09375 -3.984375 C 14.257812 -6.503906 14.441406 -8.992188 14.640625 -11.453125 C 14.835938 -13.921875 15.046875 -16.195312 15.265625 -18.28125 C 15.359375 -19.113281 15.429688 -19.84375 15.484375 -20.46875 C 15.535156 -21.09375 15.546875 -21.429688 15.515625 -21.484375 C 15.515625 -21.554688 15.363281 -21.390625 15.0625 -20.984375 C 14.757812 -20.578125 14.382812 -20.03125 13.9375 -19.34375 C 13.5 -18.65625 13.054688 -17.929688 12.609375 -17.171875 C 12.296875 -16.660156 11.9375 -16.007812 11.53125 -15.21875 C 11.125 -14.4375 10.695312 -13.613281 10.25 -12.75 C 9.8125 -11.894531 9.410156 -11.0625 9.046875 -10.25 C 8.679688 -9.445312 8.375 -8.765625 8.125 -8.203125 C 7.582031 -6.929688 7.113281 -5.757812 6.71875 -4.6875 C 6.332031 -3.625 5.96875 -2.515625 5.625 -1.359375 C 5.28125 -0.203125 4.898438 1.171875 4.484375 2.765625 C 4.242188 3.785156 4.039062 4.566406 3.875 5.109375 C 3.71875 5.648438 3.582031 6.023438 3.46875 6.234375 C 3.363281 6.441406 3.25 6.582031 3.125 6.65625 C 2.976562 6.726562 2.832031 6.765625 2.6875 6.765625 C 2.363281 6.765625 2.101562 6.644531 1.90625 6.40625 C 1.738281 6.175781 1.625 5.609375 1.5625 4.703125 C 1.5 3.796875 1.484375 2.644531 1.515625 1.25 C 1.554688 -0.144531 1.628906 -1.691406 1.734375 -3.390625 C 1.847656 -5.097656 2.003906 -6.863281 2.203125 -8.6875 C 2.398438 -10.519531 2.625 -12.304688 2.875 -14.046875 C 3.0625 -15.367188 3.28125 -16.664062 3.53125 -17.9375 C 3.78125 -19.21875 4.035156 -20.394531 4.296875 -21.46875 C 4.566406 -22.550781 4.835938 -23.46875 5.109375 -24.21875 C 5.378906 -24.96875 5.613281 -25.453125 5.8125 -25.671875 C 5.9375 -25.796875 6.132812 -25.859375 6.40625 -25.859375 C 6.644531 -25.859375 6.828125 -25.804688 6.953125 -25.703125 C 7.078125 -25.628906 7.195312 -25.363281 7.3125 -24.90625 C 7.4375 -24.457031 7.5 -24.085938 7.5 -23.796875 C 7.5 -23.359375 7.253906 -23.140625 6.765625 -23.140625 C 6.566406 -23.140625 6.4375 -23.101562 6.375 -23.03125 C 6.320312 -22.957031 6.234375 -22.695312 6.109375 -22.25 C 5.785156 -21.125 5.476562 -19.71875 5.1875 -18.03125 C 4.894531 -16.351562 4.617188 -14.535156 4.359375 -12.578125 C 4.097656 -10.617188 3.875 -8.644531 3.6875 -6.65625 C 3.507812 -4.664062 3.382812 -2.789062 3.3125 -1.03125 L 3.234375 0.703125 L 3.90625 -1.4375 C 5.050781 -5.3125 6.65625 -9.285156 8.71875 -13.359375 C 8.882812 -13.671875 9.175781 -14.238281 9.59375 -15.0625 C 10.007812 -15.882812 10.503906 -16.8125 11.078125 -17.84375 C 11.660156 -18.875 12.265625 -19.875 12.890625 -20.84375 C 13.515625 -21.8125 14.113281 -22.609375 14.6875 -23.234375 C 15.269531 -23.859375 15.753906 -24.171875 16.140625 -24.171875 C 16.753906 -24.171875 17.132812 -23.800781 17.28125 -23.0625 C 17.3125 -22.9375 17.300781 -22.472656 17.25 -21.671875 C 17.195312 -20.878906 17.113281 -19.894531 17 -18.71875 C 16.75 -16.070312 16.515625 -13.394531 16.296875 -10.6875 C 16.078125 -7.976562 15.878906 -5.359375 15.703125 -2.828125 C 15.535156 -0.304688 15.398438 2.035156 15.296875 4.203125 C 15.203125 6.378906 15.140625 8.265625 15.109375 9.859375 C 15.085938 11.453125 15.113281 12.65625 15.1875 13.46875 C 15.238281 14.144531 15.265625 14.59375 15.265625 14.8125 C 15.265625 15.039062 15.226562 15.21875 15.15625 15.34375 C 14.976562 15.582031 14.78125 15.703125 14.5625 15.703125 C 14.507812 15.703125 14.410156 15.675781 14.265625 15.625 Z M 14.265625 15.625 "/></g></g></g><g fill="#545454" fill-opacity="1"><g transform="translate(120.165934, 175.395891)"><g><path d="M 6.578125 2.609375 C 6.140625 2.609375 5.796875 2.503906 5.546875 2.296875 C 5.304688 2.085938 5.097656 1.785156 4.921875 1.390625 C 4.660156 0.828125 4.472656 0.1875 4.359375 -0.53125 C 4.242188 -1.257812 4.203125 -2.210938 4.234375 -3.390625 C 4.253906 -3.953125 4.265625 -4.425781 4.265625 -4.8125 C 4.265625 -5.207031 4.265625 -5.40625 4.265625 -5.40625 C 4.265625 -5.40625 4.15625 -5.207031 3.9375 -4.8125 C 3.71875 -4.425781 3.457031 -3.953125 3.15625 -3.390625 C 2.625 -2.359375 2.191406 -1.582031 1.859375 -1.0625 C 1.523438 -0.550781 1.238281 -0.203125 1 -0.015625 C 0.769531 0.160156 0.507812 0.25 0.21875 0.25 C -0.5625 0.25 -0.988281 -0.429688 -1.0625 -1.796875 C -1.09375 -2.390625 -1.050781 -3.039062 -0.9375 -3.75 C -0.820312 -4.457031 -0.65625 -5.15625 -0.4375 -5.84375 C -0.21875 -6.53125 0.0351562 -7.117188 0.328125 -7.609375 C 0.867188 -8.515625 1.507812 -8.96875 2.25 -8.96875 C 2.488281 -8.96875 2.671875 -8.941406 2.796875 -8.890625 C 2.921875 -8.847656 3.082031 -8.726562 3.28125 -8.53125 C 3.59375 -8.257812 3.757812 -8.125 3.78125 -8.125 C 3.8125 -8.15625 3.878906 -8.285156 3.984375 -8.515625 C 4.097656 -8.742188 4.238281 -9.007812 4.40625 -9.3125 C 4.5625 -9.625 4.71875 -9.914062 4.875 -10.1875 C 5.03125 -10.457031 5.132812 -10.628906 5.1875 -10.703125 C 5.351562 -10.867188 5.550781 -10.953125 5.78125 -10.953125 C 6.195312 -10.953125 6.476562 -10.742188 6.625 -10.328125 C 6.644531 -10.285156 6.632812 -10.113281 6.59375 -9.8125 C 6.5625 -9.519531 6.519531 -9.203125 6.46875 -8.859375 C 6.226562 -7.515625 6.054688 -6.164062 5.953125 -4.8125 C 5.859375 -3.46875 5.851562 -2.285156 5.9375 -1.265625 C 6.019531 -0.253906 6.1875 0.445312 6.4375 0.84375 C 6.457031 0.894531 6.503906 0.921875 6.578125 0.921875 C 6.828125 0.921875 7.21875 0.507812 7.75 -0.3125 C 8.289062 -1.132812 8.941406 -2.28125 9.703125 -3.75 C 10.097656 -4.488281 10.394531 -5.035156 10.59375 -5.390625 C 10.789062 -5.742188 10.960938 -5.972656 11.109375 -6.078125 C 11.253906 -6.191406 11.414062 -6.25 11.59375 -6.25 C 11.6875 -6.25 11.816406 -6.140625 11.984375 -5.921875 C 12.160156 -5.703125 12.25 -5.53125 12.25 -5.40625 C 12.25 -5.3125 12.117188 -4.976562 11.859375 -4.40625 C 11.597656 -3.84375 11.296875 -3.210938 10.953125 -2.515625 C 10.617188 -1.816406 10.300781 -1.222656 10 -0.734375 C 9.3125 0.460938 8.703125 1.316406 8.171875 1.828125 C 7.648438 2.347656 7.117188 2.609375 6.578125 2.609375 Z M 1.65625 -4.078125 C 2.125 -4.960938 2.441406 -5.570312 2.609375 -5.90625 C 2.785156 -6.238281 2.863281 -6.457031 2.84375 -6.5625 C 2.832031 -6.675781 2.765625 -6.816406 2.640625 -6.984375 C 2.472656 -7.285156 2.328125 -7.4375 2.203125 -7.4375 C 1.984375 -7.4375 1.71875 -7.082031 1.40625 -6.375 C 1.101562 -5.675781 0.878906 -4.898438 0.734375 -4.046875 C 0.640625 -3.554688 0.582031 -3.125 0.5625 -2.75 C 0.550781 -2.382812 0.5625 -2.203125 0.59375 -2.203125 C 0.613281 -2.203125 0.726562 -2.382812 0.9375 -2.75 C 1.144531 -3.125 1.382812 -3.566406 1.65625 -4.078125 Z M 1.65625 -4.078125 "/></g></g></g><g fill="#545454" fill-opacity="1"><g transform="translate(132.22989, 175.395891)"><g><path d="M -0.078125 0.515625 C -0.492188 0.335938 -0.75 -0.125 -0.84375 -0.875 C -0.914062 -1.46875 -0.898438 -2.257812 -0.796875 -3.25 C -0.703125 -4.25 -0.546875 -5.273438 -0.328125 -6.328125 C -0.109375 -7.378906 0.140625 -8.335938 0.421875 -9.203125 C 0.703125 -10.078125 0.976562 -10.703125 1.25 -11.078125 C 1.445312 -11.316406 1.664062 -11.4375 1.90625 -11.4375 C 2.664062 -11.4375 2.789062 -10.9375 2.28125 -9.9375 C 2.207031 -9.757812 2.109375 -9.476562 1.984375 -9.09375 C 1.859375 -8.71875 1.75 -8.347656 1.65625 -7.984375 C 1.53125 -7.535156 1.398438 -6.972656 1.265625 -6.296875 C 1.128906 -5.628906 1.019531 -5.015625 0.9375 -4.453125 C 0.851562 -3.890625 0.820312 -3.570312 0.84375 -3.5 C 0.863281 -3.445312 0.988281 -3.675781 1.21875 -4.1875 C 1.363281 -4.53125 1.59375 -5.03125 1.90625 -5.6875 C 2.226562 -6.351562 2.609375 -7.082031 3.046875 -7.875 C 3.492188 -8.675781 3.957031 -9.445312 4.4375 -10.1875 C 4.914062 -10.925781 5.382812 -11.546875 5.84375 -12.046875 C 6.3125 -12.546875 6.742188 -12.832031 7.140625 -12.90625 C 7.210938 -12.9375 7.3125 -12.953125 7.4375 -12.953125 C 7.894531 -12.953125 8.234375 -12.742188 8.453125 -12.328125 C 8.578125 -12.023438 8.625 -11.554688 8.59375 -10.921875 C 8.570312 -10.285156 8.46875 -9.316406 8.28125 -8.015625 C 8.15625 -7.203125 8.046875 -6.34375 7.953125 -5.4375 C 7.867188 -4.53125 7.820312 -3.726562 7.8125 -3.03125 C 7.800781 -2.332031 7.820312 -1.863281 7.875 -1.625 C 7.96875 -1.351562 8.066406 -1.21875 8.171875 -1.21875 C 8.285156 -1.21875 8.585938 -1.519531 9.078125 -2.125 C 9.578125 -2.738281 10.128906 -3.5 10.734375 -4.40625 C 11.273438 -5.195312 11.648438 -5.703125 11.859375 -5.921875 C 12.066406 -6.140625 12.269531 -6.25 12.46875 -6.25 C 12.59375 -6.25 12.75 -6.144531 12.9375 -5.9375 C 13.132812 -5.726562 13.234375 -5.5625 13.234375 -5.4375 C 13.234375 -5.320312 13.097656 -5.039062 12.828125 -4.59375 C 12.566406 -4.15625 12.238281 -3.660156 11.84375 -3.109375 C 11.445312 -2.554688 11.050781 -2.019531 10.65625 -1.5 C 10.269531 -0.988281 9.941406 -0.597656 9.671875 -0.328125 C 9.085938 0.253906 8.535156 0.546875 8.015625 0.546875 C 7.472656 0.546875 7.019531 0.265625 6.65625 -0.296875 C 6.3125 -0.804688 6.132812 -1.648438 6.125 -2.828125 C 6.113281 -4.003906 6.253906 -5.632812 6.546875 -7.71875 C 6.671875 -8.507812 6.773438 -9.191406 6.859375 -9.765625 C 6.941406 -10.335938 6.984375 -10.640625 6.984375 -10.671875 C 6.984375 -10.785156 6.867188 -10.703125 6.640625 -10.421875 C 6.410156 -10.140625 6.097656 -9.71875 5.703125 -9.15625 C 5.210938 -8.394531 4.632812 -7.367188 3.96875 -6.078125 C 3.3125 -4.796875 2.710938 -3.519531 2.171875 -2.25 C 1.734375 -1.21875 1.363281 -0.484375 1.0625 -0.046875 C 0.769531 0.378906 0.488281 0.59375 0.21875 0.59375 C 0.164062 0.59375 0.0664062 0.566406 -0.078125 0.515625 Z M -0.078125 0.515625 "/></g></g></g><g fill="#545454" fill-opacity="1"><g transform="translate(145.286906, 175.395891)"><g><path d="M -0.078125 0.515625 C -0.492188 0.335938 -0.75 -0.125 -0.84375 -0.875 C -0.914062 -1.46875 -0.898438 -2.257812 -0.796875 -3.25 C -0.703125 -4.25 -0.546875 -5.273438 -0.328125 -6.328125 C -0.109375 -7.378906 0.140625 -8.335938 0.421875 -9.203125 C 0.703125 -10.078125 0.976562 -10.703125 1.25 -11.078125 C 1.445312 -11.316406 1.664062 -11.4375 1.90625 -11.4375 C 2.664062 -11.4375 2.789062 -10.9375 2.28125 -9.9375 C 2.207031 -9.757812 2.109375 -9.476562 1.984375 -9.09375 C 1.859375 -8.71875 1.75 -8.347656 1.65625 -7.984375 C 1.53125 -7.535156 1.398438 -6.972656 1.265625 -6.296875 C 1.128906 -5.628906 1.019531 -5.015625 0.9375 -4.453125 C 0.851562 -3.890625 0.820312 -3.570312 0.84375 -3.5 C 0.863281 -3.445312 0.988281 -3.675781 1.21875 -4.1875 C 1.363281 -4.53125 1.59375 -5.03125 1.90625 -5.6875 C 2.226562 -6.351562 2.609375 -7.082031 3.046875 -7.875 C 3.492188 -8.675781 3.957031 -9.445312 4.4375 -10.1875 C 4.914062 -10.925781 5.382812 -11.546875 5.84375 -12.046875 C 6.3125 -12.546875 6.742188 -12.832031 7.140625 -12.90625 C 7.210938 -12.9375 7.3125 -12.953125 7.4375 -12.953125 C 7.894531 -12.953125 8.234375 -12.742188 8.453125 -12.328125 C 8.578125 -12.023438 8.625 -11.554688 8.59375 -10.921875 C 8.570312 -10.285156 8.46875 -9.316406 8.28125 -8.015625 C 8.15625 -7.203125 8.046875 -6.34375 7.953125 -5.4375 C 7.867188 -4.53125 7.820312 -3.726562 7.8125 -3.03125 C 7.800781 -2.332031 7.820312 -1.863281 7.875 -1.625 C 7.96875 -1.351562 8.066406 -1.21875 8.171875 -1.21875 C 8.285156 -1.21875 8.585938 -1.519531 9.078125 -2.125 C 9.578125 -2.738281 10.128906 -3.5 10.734375 -4.40625 C 11.273438 -5.195312 11.648438 -5.703125 11.859375 -5.921875 C 12.066406 -6.140625 12.269531 -6.25 12.46875 -6.25 C 12.59375 -6.25 12.75 -6.144531 12.9375 -5.9375 C 13.132812 -5.726562 13.234375 -5.5625 13.234375 -5.4375 C 13.234375 -5.320312 13.097656 -5.039062 12.828125 -4.59375 C 12.566406 -4.15625 12.238281 -3.660156 11.84375 -3.109375 C 11.445312 -2.554688 11.050781 -2.019531 10.65625 -1.5 C 10.269531 -0.988281 9.941406 -0.597656 9.671875 -0.328125 C 9.085938 0.253906 8.535156 0.546875 8.015625 0.546875 C 7.472656 0.546875 7.019531 0.265625 6.65625 -0.296875 C 6.3125 -0.804688 6.132812 -1.648438 6.125 -2.828125 C 6.113281 -4.003906 6.253906 -5.632812 6.546875 -7.71875 C 6.671875 -8.507812 6.773438 -9.191406 6.859375 -9.765625 C 6.941406 -10.335938 6.984375 -10.640625 6.984375 -10.671875 C 6.984375 -10.785156 6.867188 -10.703125 6.640625 -10.421875 C 6.410156 -10.140625 6.097656 -9.71875 5.703125 -9.15625 C 5.210938 -8.394531 4.632812 -7.367188 3.96875 -6.078125 C 3.3125 -4.796875 2.710938 -3.519531 2.171875 -2.25 C 1.734375 -1.21875 1.363281 -0.484375 1.0625 -0.046875 C 0.769531 0.378906 0.488281 0.59375 0.21875 0.59375 C 0.164062 0.59375 0.0664062 0.566406 -0.078125 0.515625 Z M -0.078125 0.515625 "/></g></g></g><g fill="#545454" fill-opacity="1"><g transform="translate(158.343923, 175.395891)"><g><path d="M -4.59375 16.84375 C -5.15625 16.5 -5.363281 15.863281 -5.21875 14.9375 C -5.09375 14.300781 -4.75 13.445312 -4.1875 12.375 C -3.625 11.3125 -2.898438 10.132812 -2.015625 8.84375 C -1.140625 7.5625 -0.15625 6.242188 0.9375 4.890625 C 2.03125 3.546875 3.148438 2.269531 4.296875 1.0625 L 5.375 0 L 5.703125 -1.765625 C 5.847656 -2.429688 5.972656 -3.128906 6.078125 -3.859375 C 6.191406 -4.597656 6.28125 -5.253906 6.34375 -5.828125 C 6.40625 -6.398438 6.425781 -6.773438 6.40625 -6.953125 C 6.40625 -7.078125 6.378906 -7.140625 6.328125 -7.140625 C 6.273438 -7.140625 6.113281 -6.894531 5.84375 -6.40625 C 4.9375 -4.882812 4.113281 -3.617188 3.375 -2.609375 C 2.644531 -1.609375 2.070312 -0.957031 1.65625 -0.65625 C 1.332031 -0.4375 0.976562 -0.328125 0.59375 -0.328125 C 0.144531 -0.328125 -0.179688 -0.460938 -0.390625 -0.734375 C -0.597656 -1.003906 -0.738281 -1.328125 -0.8125 -1.703125 C -0.882812 -2.085938 -0.921875 -2.460938 -0.921875 -2.828125 C -0.921875 -3.441406 -0.828125 -4.179688 -0.640625 -5.046875 C -0.460938 -5.921875 -0.226562 -6.785156 0.0625 -7.640625 C 0.363281 -8.503906 0.671875 -9.25 0.984375 -9.875 C 1.304688 -10.5 1.59375 -10.875 1.84375 -11 C 1.988281 -11.050781 2.097656 -11.078125 2.171875 -11.078125 C 2.515625 -11.078125 2.75 -10.925781 2.875 -10.625 C 2.914062 -10.457031 2.910156 -10.285156 2.859375 -10.109375 C 2.816406 -9.941406 2.6875 -9.710938 2.46875 -9.421875 C 2.164062 -9.003906 1.890625 -8.421875 1.640625 -7.671875 C 1.398438 -6.921875 1.203125 -6.144531 1.046875 -5.34375 C 0.890625 -4.550781 0.796875 -3.882812 0.765625 -3.34375 L 0.734375 -1.984375 L 1.28125 -2.578125 C 1.601562 -2.921875 2.054688 -3.53125 2.640625 -4.40625 C 3.234375 -5.289062 3.910156 -6.382812 4.671875 -7.6875 C 5.140625 -8.445312 5.5 -9.007812 5.75 -9.375 C 6.007812 -9.75 6.226562 -9.992188 6.40625 -10.109375 C 6.59375 -10.234375 6.785156 -10.296875 6.984375 -10.296875 C 7.503906 -10.296875 7.847656 -10.023438 8.015625 -9.484375 C 8.191406 -8.953125 8.21875 -8.035156 8.09375 -6.734375 C 8.019531 -5.972656 7.9375 -5.210938 7.84375 -4.453125 C 7.757812 -3.691406 7.660156 -3.03125 7.546875 -2.46875 L 7.4375 -1.984375 L 7.984375 -2.46875 C 8.128906 -2.582031 8.441406 -2.851562 8.921875 -3.28125 C 9.398438 -3.71875 9.894531 -4.171875 10.40625 -4.640625 C 10.925781 -5.097656 11.398438 -5.515625 11.828125 -5.890625 C 12.253906 -6.273438 12.515625 -6.492188 12.609375 -6.546875 C 12.835938 -6.691406 13.0625 -6.765625 13.28125 -6.765625 C 13.519531 -6.765625 13.710938 -6.65625 13.859375 -6.4375 C 14.015625 -6.257812 14.09375 -6.109375 14.09375 -5.984375 C 14.09375 -5.867188 13.945312 -5.675781 13.65625 -5.40625 C 13.375 -5.132812 12.867188 -4.671875 12.140625 -4.015625 C 11.816406 -3.710938 11.335938 -3.273438 10.703125 -2.703125 C 10.066406 -2.128906 9.46875 -1.570312 8.90625 -1.03125 L 6.84375 0.875 L 6.625 1.765625 C 6.5 2.234375 6.300781 2.882812 6.03125 3.71875 C 5.757812 4.550781 5.476562 5.378906 5.1875 6.203125 C 4.894531 7.023438 4.632812 7.691406 4.40625 8.203125 C 4.1875 8.742188 3.878906 9.382812 3.484375 10.125 C 3.097656 10.875 2.640625 11.660156 2.109375 12.484375 C 1.585938 13.304688 1.019531 14.066406 0.40625 14.765625 C -0.207031 15.460938 -0.847656 16.03125 -1.515625 16.46875 C -2.191406 16.914062 -2.890625 17.140625 -3.609375 17.140625 C -3.953125 17.140625 -4.28125 17.039062 -4.59375 16.84375 Z M -2.3125 15 C -1.507812 14.46875 -0.753906 13.722656 -0.046875 12.765625 C 0.648438 11.804688 1.28125 10.785156 1.84375 9.703125 C 2.40625 8.628906 2.859375 7.648438 3.203125 6.765625 C 3.398438 6.273438 3.585938 5.78125 3.765625 5.28125 C 3.953125 4.78125 4.101562 4.347656 4.21875 3.984375 C 4.34375 3.628906 4.394531 3.453125 4.375 3.453125 C 4.351562 3.429688 4.15625 3.632812 3.78125 4.0625 C 3.414062 4.488281 2.992188 4.988281 2.515625 5.5625 C 2.035156 6.144531 1.613281 6.671875 1.25 7.140625 C 1.082031 7.359375 0.804688 7.734375 0.421875 8.265625 C 0.046875 8.804688 -0.375 9.414062 -0.84375 10.09375 C -1.3125 10.769531 -1.757812 11.457031 -2.1875 12.15625 C -2.613281 12.851562 -2.960938 13.488281 -3.234375 14.0625 C -3.503906 14.644531 -3.640625 15.082031 -3.640625 15.375 C -3.640625 15.425781 -3.59375 15.453125 -3.5 15.453125 C -3.226562 15.453125 -2.832031 15.300781 -2.3125 15 Z M -2.3125 15 "/></g></g></g><g fill="#545454" fill-opacity="1"><g transform="translate(229.891558, 175.395891)"><g><path d="M 22.140625 14.78125 C 21.742188 14.394531 21.398438 13.351562 21.109375 11.65625 C 20.816406 9.96875 20.5625 7.550781 20.34375 4.40625 C 20.289062 3.84375 20.25 3.082031 20.21875 2.125 C 20.195312 1.175781 20.179688 0.148438 20.171875 -0.953125 C 20.160156 -2.054688 20.160156 -3.140625 20.171875 -4.203125 C 20.179688 -5.273438 20.195312 -6.226562 20.21875 -7.0625 C 20.25 -7.894531 20.289062 -8.507812 20.34375 -8.90625 C 20.46875 -10.007812 20.609375 -11.140625 20.765625 -12.296875 C 20.921875 -13.460938 21.085938 -14.441406 21.265625 -15.234375 C 21.335938 -15.617188 21.394531 -15.953125 21.4375 -16.234375 C 21.488281 -16.515625 21.503906 -16.65625 21.484375 -16.65625 C 21.484375 -16.6875 21.367188 -16.519531 21.140625 -16.15625 C 20.921875 -15.800781 20.65625 -15.367188 20.34375 -14.859375 C 19.332031 -13.191406 18.40625 -11.566406 17.5625 -9.984375 C 16.71875 -8.398438 15.914062 -6.789062 15.15625 -5.15625 C 14.394531 -3.53125 13.632812 -1.800781 12.875 0.03125 C 12.625 0.675781 12.390625 1.226562 12.171875 1.6875 C 11.953125 2.15625 11.804688 2.425781 11.734375 2.5 C 11.535156 2.625 11.363281 2.6875 11.21875 2.6875 C 11 2.6875 10.789062 2.585938 10.59375 2.390625 L 10.265625 2.140625 L 10.265625 -0.109375 C 10.265625 -0.941406 10.296875 -1.953125 10.359375 -3.140625 C 10.421875 -4.328125 10.488281 -5.613281 10.5625 -7 C 10.632812 -8.382812 10.722656 -9.796875 10.828125 -11.234375 C 10.941406 -12.671875 11.0625 -14.023438 11.1875 -15.296875 C 11.257812 -16.085938 11.316406 -16.769531 11.359375 -17.34375 C 11.410156 -17.914062 11.425781 -18.21875 11.40625 -18.25 C 11.375 -18.269531 11.207031 -17.9375 10.90625 -17.25 C 10.601562 -16.5625 10.253906 -15.753906 9.859375 -14.828125 C 8.609375 -11.753906 7.546875 -8.5 6.671875 -5.0625 C 5.804688 -1.632812 5.1875 1.769531 4.8125 5.15625 C 4.71875 6.101562 4.632812 6.710938 4.5625 6.984375 C 4.488281 7.253906 4.351562 7.441406 4.15625 7.546875 C 4.007812 7.617188 3.863281 7.65625 3.71875 7.65625 C 3.195312 7.65625 2.863281 7.203125 2.71875 6.296875 C 2.664062 5.898438 2.59375 5.253906 2.5 4.359375 C 2.40625 3.460938 2.3125 2.492188 2.21875 1.453125 C 2.132812 0.410156 2.066406 -0.515625 2.015625 -1.328125 C 1.972656 -2.179688 1.9375 -3.234375 1.90625 -4.484375 C 1.882812 -5.734375 1.875 -7.039062 1.875 -8.40625 C 1.875 -9.769531 1.890625 -11.039062 1.921875 -12.21875 C 1.960938 -13.394531 2.007812 -14.320312 2.0625 -15 C 2.207031 -16.75 2.40625 -18.441406 2.65625 -20.078125 C 2.914062 -21.722656 3.207031 -23.144531 3.53125 -24.34375 C 3.851562 -25.550781 4.144531 -26.363281 4.40625 -26.78125 C 4.601562 -27.050781 4.828125 -27.195312 5.078125 -27.21875 C 5.097656 -27.21875 5.109375 -27.21875 5.109375 -27.21875 C 5.109375 -27.21875 5.125 -27.21875 5.15625 -27.21875 C 5.59375 -27.21875 5.859375 -27.003906 5.953125 -26.578125 C 6.054688 -26.148438 5.9375 -25.785156 5.59375 -25.484375 C 5.46875 -25.367188 5.335938 -25.09375 5.203125 -24.65625 C 5.066406 -24.226562 4.898438 -23.515625 4.703125 -22.515625 C 4.242188 -20.128906 3.914062 -17.375 3.71875 -14.25 C 3.519531 -11.125 3.46875 -7.882812 3.5625 -4.53125 C 3.613281 -3.46875 3.65625 -2.519531 3.6875 -1.6875 C 3.726562 -0.851562 3.757812 -0.375 3.78125 -0.25 C 3.832031 -0.101562 3.859375 -0.03125 3.859375 -0.03125 C 3.890625 -0.03125 3.941406 -0.265625 4.015625 -0.734375 C 4.253906 -2.085938 4.566406 -3.535156 4.953125 -5.078125 C 5.347656 -6.617188 5.796875 -8.179688 6.296875 -9.765625 C 6.804688 -11.347656 7.34375 -12.875 7.90625 -14.34375 C 8.46875 -15.8125 9.03125 -17.132812 9.59375 -18.3125 C 10.132812 -19.445312 10.609375 -20.269531 11.015625 -20.78125 C 11.421875 -21.289062 11.796875 -21.546875 12.140625 -21.546875 C 12.453125 -21.546875 12.691406 -21.414062 12.859375 -21.15625 C 13.035156 -20.90625 13.148438 -20.644531 13.203125 -20.375 C 13.222656 -20.226562 13.207031 -19.785156 13.15625 -19.046875 C 13.113281 -18.316406 13.054688 -17.5 12.984375 -16.59375 C 12.890625 -15.65625 12.789062 -14.570312 12.6875 -13.34375 C 12.59375 -12.125 12.5 -10.875 12.40625 -9.59375 C 12.320312 -8.320312 12.242188 -7.140625 12.171875 -6.046875 C 12.097656 -4.953125 12.039062 -4.0625 12 -3.375 C 11.96875 -2.695312 11.960938 -2.34375 11.984375 -2.3125 C 12.015625 -2.289062 12.101562 -2.429688 12.25 -2.734375 C 12.394531 -3.046875 12.550781 -3.421875 12.71875 -3.859375 C 12.894531 -4.222656 13.210938 -4.890625 13.671875 -5.859375 C 14.140625 -6.828125 14.707031 -7.957031 15.375 -9.25 C 16.039062 -10.539062 16.738281 -11.863281 17.46875 -13.21875 C 18.207031 -14.582031 18.941406 -15.851562 19.671875 -17.03125 C 20.410156 -18.207031 21.078125 -19.15625 21.671875 -19.875 C 22.273438 -20.601562 22.75 -20.96875 23.09375 -20.96875 C 23.363281 -20.96875 23.582031 -20.875 23.75 -20.6875 C 23.925781 -20.5 24.015625 -20.273438 24.015625 -20.015625 C 24.015625 -19.910156 23.960938 -19.644531 23.859375 -19.21875 C 23.765625 -18.789062 23.660156 -18.316406 23.546875 -17.796875 C 22.785156 -14.910156 22.273438 -11.882812 22.015625 -8.71875 C 21.753906 -5.550781 21.710938 -2.046875 21.890625 1.796875 C 22.003906 4.003906 22.140625 5.984375 22.296875 7.734375 C 22.460938 9.492188 22.632812 10.890625 22.8125 11.921875 C 23 12.953125 23.179688 13.46875 23.359375 13.46875 C 23.484375 13.46875 23.601562 13.546875 23.71875 13.703125 C 23.84375 13.859375 23.90625 14.023438 23.90625 14.203125 C 23.90625 14.472656 23.804688 14.691406 23.609375 14.859375 C 23.410156 15.023438 23.179688 15.109375 22.921875 15.109375 C 22.617188 15.109375 22.359375 15 22.140625 14.78125 Z M 22.140625 14.78125 "/></g></g></g><g fill="#545454" fill-opacity="1"><g transform="translate(255.52745, 175.395891)"><g><path d="M 1.625 2.421875 C 0.394531 2.054688 -0.476562 1.25 -1 0 C -1.113281 -0.289062 -1.179688 -0.570312 -1.203125 -0.84375 C -1.234375 -1.113281 -1.25 -1.59375 -1.25 -2.28125 C -1.25 -2.96875 -1.226562 -3.460938 -1.1875 -3.765625 C -1.15625 -4.078125 -1.066406 -4.460938 -0.921875 -4.921875 C -0.554688 -6.171875 -0.0625 -7.359375 0.5625 -8.484375 C 1.195312 -9.617188 1.878906 -10.566406 2.609375 -11.328125 C 3.441406 -12.160156 4.101562 -12.578125 4.59375 -12.578125 C 4.863281 -12.578125 5.160156 -12.414062 5.484375 -12.09375 C 5.609375 -11.976562 5.6875 -11.859375 5.71875 -11.734375 C 5.757812 -11.609375 5.765625 -11.363281 5.734375 -11 C 5.710938 -10.582031 5.582031 -10.082031 5.34375 -9.5 C 5.113281 -8.925781 4.816406 -8.367188 4.453125 -7.828125 C 4.085938 -7.296875 3.679688 -6.847656 3.234375 -6.484375 C 2.796875 -6.128906 2.351562 -5.953125 1.90625 -5.953125 C 1.882812 -5.953125 1.847656 -5.957031 1.796875 -5.96875 C 1.753906 -5.988281 1.707031 -6 1.65625 -6 L 1.171875 -6.0625 L 0.875 -5.078125 C 0.269531 -3.210938 0.15625 -1.742188 0.53125 -0.671875 C 0.914062 0.390625 1.734375 0.921875 2.984375 0.921875 C 3.835938 0.921875 4.691406 0.722656 5.546875 0.328125 C 6.410156 -0.0546875 7.367188 -0.703125 8.421875 -1.609375 C 9.472656 -2.523438 10.695312 -3.742188 12.09375 -5.265625 C 12.507812 -5.703125 12.789062 -5.984375 12.9375 -6.109375 C 13.09375 -6.234375 13.253906 -6.296875 13.421875 -6.296875 C 13.640625 -6.296875 13.832031 -6.210938 14 -6.046875 C 14.175781 -5.890625 14.265625 -5.710938 14.265625 -5.515625 C 14.265625 -5.367188 14.066406 -5.050781 13.671875 -4.5625 C 13.285156 -4.070312 12.789062 -3.515625 12.1875 -2.890625 C 11.59375 -2.265625 10.972656 -1.648438 10.328125 -1.046875 C 9.691406 -0.441406 9.144531 0.03125 8.6875 0.375 C 7.851562 0.976562 6.960938 1.492188 6.015625 1.921875 C 5.066406 2.359375 4.066406 2.578125 3.015625 2.578125 C 2.765625 2.578125 2.515625 2.554688 2.265625 2.515625 C 2.023438 2.484375 1.8125 2.453125 1.625 2.421875 Z M 2.875 -8.28125 C 3.019531 -8.46875 3.179688 -8.722656 3.359375 -9.046875 C 3.546875 -9.367188 3.703125 -9.660156 3.828125 -9.921875 C 3.953125 -10.191406 4 -10.34375 3.96875 -10.375 C 3.945312 -10.394531 3.832031 -10.28125 3.625 -10.03125 C 3.414062 -9.789062 3.179688 -9.492188 2.921875 -9.140625 C 2.660156 -8.785156 2.4375 -8.453125 2.25 -8.140625 C 2.070312 -7.835938 1.984375 -7.648438 1.984375 -7.578125 C 1.984375 -7.523438 1.992188 -7.5 2.015625 -7.5 C 2.097656 -7.5 2.21875 -7.578125 2.375 -7.734375 C 2.53125 -7.898438 2.695312 -8.082031 2.875 -8.28125 Z M 2.875 -8.28125 "/></g></g></g></svg>